# MagicaVoxel @ Ephtracy

# group
o 

# material
mtllib Floor Empty.mtl
usemtl palette

# normals
vn -1 0 0
vn 1 0 0
vn 0 0 1
vn 0 0 -1
vn 0 -1 0
vn 0 1 0

# texcoords
vt 0.814453 0.5
vt 0.970703 0.5
vt 0.986328 0.5
vt 0.994141 0.5

# verts
v -0.8 0 0.8
v -0.8 0 -0.8
v -0.8 1.6 0.8
v -0.8 1.6 -0.8
v -0.6 1.5 0.2
v -0.6 1.5 -0.2
v -0.6 1.6 0.2
v -0.6 1.6 -0.2
v -0.5 1.5 0.4
v -0.5 1.5 0.2
v -0.5 1.5 -0.2
v -0.5 1.5 -0.4
v -0.5 1.6 0.4
v -0.5 1.6 0.2
v -0.5 1.6 -0.2
v -0.5 1.6 -0.4
v -0.4 1.5 0.5
v -0.4 1.5 0.4
v -0.4 1.5 -0.4
v -0.4 1.5 -0.5
v -0.4 1.6 0.5
v -0.4 1.6 0.4
v -0.4 1.6 -0.4
v -0.4 1.6 -0.5
v -0.2 1.5 0.6
v -0.2 1.5 0.5
v -0.2 1.5 -0.5
v -0.2 1.5 -0.6
v -0.2 1.6 0.6
v -0.2 1.6 0.5
v -0.2 1.6 -0.5
v -0.2 1.6 -0.6
v 0.1 1.5 0.3
v 0.1 1.5 0.1
v 0.1 1.5 -0.1
v 0.1 1.5 -0.3
v 0.1 1.6 0.3
v 0.1 1.6 0.1
v 0.1 1.6 -0.1
v 0.1 1.6 -0.3
v 0.2 1.5 0.7
v 0.2 1.5 0.6
v 0.2 1.5 -0.6
v 0.2 1.5 -0.7
v 0.2 1.6 0.7
v 0.2 1.6 0.6
v 0.2 1.6 -0.6
v 0.2 1.6 -0.7
v 0.3 1.5 0.1
v 0.3 1.5 -0.1
v 0.3 1.6 0.1
v 0.3 1.6 -0.1
v 0.4 1.5 0.6
v 0.4 1.5 0.5
v 0.4 1.5 -0.5
v 0.4 1.5 -0.6
v 0.4 1.6 0.6
v 0.4 1.6 0.5
v 0.4 1.6 -0.5
v 0.4 1.6 -0.6
v 0.5 1.5 0.5
v 0.5 1.5 0.4
v 0.5 1.5 -0.4
v 0.5 1.5 -0.5
v 0.5 1.6 0.5
v 0.5 1.6 0.4
v 0.5 1.6 -0.4
v 0.5 1.6 -0.5
v 0.6 1.5 0.4
v 0.6 1.5 0.2
v 0.6 1.5 -0.2
v 0.6 1.5 -0.4
v 0.6 1.6 0.4
v 0.6 1.6 0.2
v 0.6 1.6 -0.2
v 0.6 1.6 -0.4
v 0.7 1.5 0.2
v 0.7 1.5 -0.2
v 0.7 1.6 0.2
v 0.7 1.6 -0.2
v -0.7 1.5 0.2
v -0.7 1.5 -0.2
v -0.7 1.6 0.2
v -0.7 1.6 -0.2
v -0.6 1.5 0.4
v -0.6 1.5 0.2
v -0.6 1.5 -0.2
v -0.6 1.5 -0.4
v -0.6 1.6 0.4
v -0.6 1.6 0.2
v -0.6 1.6 -0.2
v -0.6 1.6 -0.4
v -0.5 1.5 0.5
v -0.5 1.5 0.4
v -0.5 1.5 -0.4
v -0.5 1.5 -0.5
v -0.5 1.6 0.5
v -0.5 1.6 0.4
v -0.5 1.6 -0.4
v -0.5 1.6 -0.5
v -0.4 1.5 0.6
v -0.4 1.5 0.5
v -0.4 1.5 -0.5
v -0.4 1.5 -0.6
v -0.4 1.6 0.6
v -0.4 1.6 0.5
v -0.4 1.6 -0.5
v -0.4 1.6 -0.6
v -0.3 1.5 0.1
v -0.3 1.5 -0.1
v -0.3 1.6 0.1
v -0.3 1.6 -0.1
v -0.2 1.5 0.7
v -0.2 1.5 0.6
v -0.2 1.5 -0.6
v -0.2 1.5 -0.7
v -0.2 1.6 0.7
v -0.2 1.6 0.6
v -0.2 1.6 -0.6
v -0.2 1.6 -0.7
v -0.1 1.5 0.3
v -0.1 1.5 0.1
v -0.1 1.5 -0.1
v -0.1 1.5 -0.3
v -0.1 1.6 0.3
v -0.1 1.6 0.1
v -0.1 1.6 -0.1
v -0.1 1.6 -0.3
v 0.2 1.5 0.6
v 0.2 1.5 0.5
v 0.2 1.5 -0.5
v 0.2 1.5 -0.6
v 0.2 1.6 0.6
v 0.2 1.6 0.5
v 0.2 1.6 -0.5
v 0.2 1.6 -0.6
v 0.4 1.5 0.5
v 0.4 1.5 0.4
v 0.4 1.5 -0.4
v 0.4 1.5 -0.5
v 0.4 1.6 0.5
v 0.4 1.6 0.4
v 0.4 1.6 -0.4
v 0.4 1.6 -0.5
v 0.5 1.5 0.4
v 0.5 1.5 0.2
v 0.5 1.5 -0.2
v 0.5 1.5 -0.4
v 0.5 1.6 0.4
v 0.5 1.6 0.2
v 0.5 1.6 -0.2
v 0.5 1.6 -0.4
v 0.6 1.5 0.2
v 0.6 1.5 -0.2
v 0.6 1.6 0.2
v 0.6 1.6 -0.2
v 0.8 0 0.8
v 0.8 0 -0.8
v 0.8 1.6 0.8
v 0.8 1.6 -0.8
v -0.8 0 0.8
v -0.8 1.6 0.8
v 0.8 0 0.8
v 0.8 1.6 0.8
v -0.2 1.5 0.6
v -0.2 1.6 0.6
v 0.2 1.5 0.6
v 0.2 1.6 0.6
v -0.4 1.5 0.5
v -0.4 1.6 0.5
v -0.2 1.5 0.5
v -0.2 1.6 0.5
v 0.2 1.5 0.5
v 0.2 1.6 0.5
v 0.4 1.5 0.5
v 0.4 1.6 0.5
v -0.5 1.5 0.4
v -0.5 1.6 0.4
v -0.4 1.5 0.4
v -0.4 1.6 0.4
v 0.4 1.5 0.4
v 0.4 1.6 0.4
v 0.5 1.5 0.4
v 0.5 1.6 0.4
v -0.6 1.5 0.2
v -0.6 1.6 0.2
v -0.5 1.5 0.2
v -0.5 1.6 0.2
v 0.5 1.5 0.2
v 0.5 1.6 0.2
v 0.6 1.5 0.2
v 0.6 1.6 0.2
v -0.3 1.5 -0.1
v -0.3 1.6 -0.1
v -0.1 1.5 -0.1
v -0.1 1.6 -0.1
v 0.1 1.5 -0.1
v 0.1 1.6 -0.1
v 0.3 1.5 -0.1
v 0.3 1.6 -0.1
v -0.7 1.5 -0.2
v -0.7 1.6 -0.2
v -0.6 1.5 -0.2
v -0.6 1.6 -0.2
v 0.6 1.5 -0.2
v 0.6 1.6 -0.2
v 0.7 1.5 -0.2
v 0.7 1.6 -0.2
v -0.1 1.5 -0.3
v -0.1 1.6 -0.3
v 0.1 1.5 -0.3
v 0.1 1.6 -0.3
v -0.6 1.5 -0.4
v -0.6 1.6 -0.4
v -0.5 1.5 -0.4
v -0.5 1.6 -0.4
v 0.5 1.5 -0.4
v 0.5 1.6 -0.4
v 0.6 1.5 -0.4
v 0.6 1.6 -0.4
v -0.5 1.5 -0.5
v -0.5 1.6 -0.5
v -0.4 1.5 -0.5
v -0.4 1.6 -0.5
v 0.4 1.5 -0.5
v 0.4 1.6 -0.5
v 0.5 1.5 -0.5
v 0.5 1.6 -0.5
v -0.4 1.5 -0.6
v -0.4 1.6 -0.6
v -0.2 1.5 -0.6
v -0.2 1.6 -0.6
v 0.2 1.5 -0.6
v 0.2 1.6 -0.6
v 0.4 1.5 -0.6
v 0.4 1.6 -0.6
v -0.2 1.5 -0.7
v -0.2 1.6 -0.7
v 0.2 1.5 -0.7
v 0.2 1.6 -0.7
v -0.2 1.5 0.7
v -0.2 1.6 0.7
v 0.2 1.5 0.7
v 0.2 1.6 0.7
v -0.4 1.5 0.6
v -0.4 1.6 0.6
v -0.2 1.5 0.6
v -0.2 1.6 0.6
v 0.2 1.5 0.6
v 0.2 1.6 0.6
v 0.4 1.5 0.6
v 0.4 1.6 0.6
v -0.5 1.5 0.5
v -0.5 1.6 0.5
v -0.4 1.5 0.5
v -0.4 1.6 0.5
v 0.4 1.5 0.5
v 0.4 1.6 0.5
v 0.5 1.5 0.5
v 0.5 1.6 0.5
v -0.6 1.5 0.4
v -0.6 1.6 0.4
v -0.5 1.5 0.4
v -0.5 1.6 0.4
v 0.5 1.5 0.4
v 0.5 1.6 0.4
v 0.6 1.5 0.4
v 0.6 1.6 0.4
v -0.1 1.5 0.3
v -0.1 1.6 0.3
v 0.1 1.5 0.3
v 0.1 1.6 0.3
v -0.7 1.5 0.2
v -0.7 1.6 0.2
v -0.6 1.5 0.2
v -0.6 1.6 0.2
v 0.6 1.5 0.2
v 0.6 1.6 0.2
v 0.7 1.5 0.2
v 0.7 1.6 0.2
v -0.3 1.5 0.1
v -0.3 1.6 0.1
v -0.1 1.5 0.1
v -0.1 1.6 0.1
v 0.1 1.5 0.1
v 0.1 1.6 0.1
v 0.3 1.5 0.1
v 0.3 1.6 0.1
v -0.6 1.5 -0.2
v -0.6 1.6 -0.2
v -0.5 1.5 -0.2
v -0.5 1.6 -0.2
v 0.5 1.5 -0.2
v 0.5 1.6 -0.2
v 0.6 1.5 -0.2
v 0.6 1.6 -0.2
v -0.5 1.5 -0.4
v -0.5 1.6 -0.4
v -0.4 1.5 -0.4
v -0.4 1.6 -0.4
v 0.4 1.5 -0.4
v 0.4 1.6 -0.4
v 0.5 1.5 -0.4
v 0.5 1.6 -0.4
v -0.4 1.5 -0.5
v -0.4 1.6 -0.5
v -0.2 1.5 -0.5
v -0.2 1.6 -0.5
v 0.2 1.5 -0.5
v 0.2 1.6 -0.5
v 0.4 1.5 -0.5
v 0.4 1.6 -0.5
v -0.2 1.5 -0.6
v -0.2 1.6 -0.6
v 0.2 1.5 -0.6
v 0.2 1.6 -0.6
v -0.8 0 -0.8
v -0.8 1.6 -0.8
v 0.8 0 -0.8
v 0.8 1.6 -0.8
v -0.8 0 0.8
v 0.8 0 0.8
v -0.8 0 -0.8
v 0.8 0 -0.8
v -0.2 1.5 0.7
v 0.2 1.5 0.7
v -0.4 1.5 0.6
v -0.2 1.5 0.6
v 0.2 1.5 0.6
v 0.4 1.5 0.6
v -0.5 1.5 0.5
v -0.4 1.5 0.5
v -0.2 1.5 0.5
v 0.2 1.5 0.5
v 0.4 1.5 0.5
v 0.5 1.5 0.5
v -0.6 1.5 0.4
v -0.5 1.5 0.4
v -0.4 1.5 0.4
v 0.4 1.5 0.4
v 0.5 1.5 0.4
v 0.6 1.5 0.4
v -0.1 1.5 0.3
v 0.1 1.5 0.3
v -0.7 1.5 0.2
v -0.6 1.5 0.2
v -0.5 1.5 0.2
v 0.5 1.5 0.2
v 0.6 1.5 0.2
v 0.7 1.5 0.2
v -0.3 1.5 0.1
v -0.1 1.5 0.1
v 0.1 1.5 0.1
v 0.3 1.5 0.1
v -0.3 1.5 -0.1
v -0.1 1.5 -0.1
v 0.1 1.5 -0.1
v 0.3 1.5 -0.1
v -0.7 1.5 -0.2
v -0.6 1.5 -0.2
v -0.5 1.5 -0.2
v 0.5 1.5 -0.2
v 0.6 1.5 -0.2
v 0.7 1.5 -0.2
v -0.1 1.5 -0.3
v 0.1 1.5 -0.3
v -0.6 1.5 -0.4
v -0.5 1.5 -0.4
v -0.4 1.5 -0.4
v 0.4 1.5 -0.4
v 0.5 1.5 -0.4
v 0.6 1.5 -0.4
v -0.5 1.5 -0.5
v -0.4 1.5 -0.5
v -0.2 1.5 -0.5
v 0.2 1.5 -0.5
v 0.4 1.5 -0.5
v 0.5 1.5 -0.5
v -0.4 1.5 -0.6
v -0.2 1.5 -0.6
v 0.2 1.5 -0.6
v 0.4 1.5 -0.6
v -0.2 1.5 -0.7
v 0.2 1.5 -0.7
v -0.8 1.6 0.8
v 0.8 1.6 0.8
v -0.2 1.6 0.7
v 0.2 1.6 0.7
v -0.4 1.6 0.6
v -0.2 1.6 0.6
v 0.2 1.6 0.6
v 0.4 1.6 0.6
v -0.5 1.6 0.5
v -0.4 1.6 0.5
v -0.2 1.6 0.5
v 0.2 1.6 0.5
v 0.4 1.6 0.5
v 0.5 1.6 0.5
v -0.6 1.6 0.4
v -0.5 1.6 0.4
v -0.4 1.6 0.4
v -0.2 1.6 0.4
v 0.2 1.6 0.4
v 0.4 1.6 0.4
v 0.5 1.6 0.4
v 0.6 1.6 0.4
v -0.1 1.6 0.3
v 0.1 1.6 0.3
v -0.7 1.6 0.2
v -0.6 1.6 0.2
v -0.5 1.6 0.2
v -0.4 1.6 0.2
v 0.4 1.6 0.2
v 0.5 1.6 0.2
v 0.6 1.6 0.2
v 0.7 1.6 0.2
v -0.3 1.6 0.1
v -0.1 1.6 0.1
v 0.1 1.6 0.1
v 0.3 1.6 0.1
v -0.3 1.6 -0.1
v -0.1 1.6 -0.1
v 0.1 1.6 -0.1
v 0.3 1.6 -0.1
v -0.7 1.6 -0.2
v -0.6 1.6 -0.2
v -0.5 1.6 -0.2
v -0.4 1.6 -0.2
v 0.4 1.6 -0.2
v 0.5 1.6 -0.2
v 0.6 1.6 -0.2
v 0.7 1.6 -0.2
v -0.1 1.6 -0.3
v 0.1 1.6 -0.3
v -0.6 1.6 -0.4
v -0.5 1.6 -0.4
v -0.4 1.6 -0.4
v -0.2 1.6 -0.4
v 0.2 1.6 -0.4
v 0.4 1.6 -0.4
v 0.5 1.6 -0.4
v 0.6 1.6 -0.4
v -0.5 1.6 -0.5
v -0.4 1.6 -0.5
v -0.2 1.6 -0.5
v 0.2 1.6 -0.5
v 0.4 1.6 -0.5
v 0.5 1.6 -0.5
v -0.4 1.6 -0.6
v -0.2 1.6 -0.6
v 0.2 1.6 -0.6
v 0.4 1.6 -0.6
v -0.2 1.6 -0.7
v 0.2 1.6 -0.7
v -0.8 1.6 -0.8
v 0.8 1.6 -0.8

# faces
f 3/1/1 2/1/1 1/1/1
f 4/1/1 2/1/1 3/1/1
f 7/3/1 6/3/1 5/3/1
f 8/3/1 6/3/1 7/3/1
f 13/3/1 10/3/1 9/3/1
f 14/3/1 10/3/1 13/3/1
f 15/3/1 12/3/1 11/3/1
f 16/3/1 12/3/1 15/3/1
f 21/3/1 18/3/1 17/3/1
f 22/3/1 18/3/1 21/3/1
f 23/3/1 20/3/1 19/3/1
f 24/3/1 20/3/1 23/3/1
f 29/3/1 26/3/1 25/3/1
f 30/3/1 26/3/1 29/3/1
f 31/3/1 28/3/1 27/3/1
f 32/3/1 28/3/1 31/3/1
f 37/2/1 34/2/1 33/2/1
f 38/2/1 34/2/1 37/2/1
f 39/2/1 36/2/1 35/2/1
f 40/2/1 36/2/1 39/2/1
f 45/1/1 42/1/1 41/1/1
f 46/1/1 42/1/1 45/1/1
f 47/1/1 44/1/1 43/1/1
f 48/1/1 44/1/1 47/1/1
f 51/2/1 50/2/1 49/2/1
f 52/2/1 50/2/1 51/2/1
f 57/1/1 54/1/1 53/1/1
f 58/1/1 54/1/1 57/1/1
f 59/1/1 56/1/1 55/1/1
f 60/1/1 56/1/1 59/1/1
f 65/1/1 62/1/1 61/1/1
f 66/1/1 62/1/1 65/1/1
f 67/1/1 64/1/1 63/1/1
f 68/1/1 64/1/1 67/1/1
f 73/1/1 70/1/1 69/1/1
f 74/1/1 70/1/1 73/1/1
f 75/1/1 72/1/1 71/1/1
f 76/1/1 72/1/1 75/1/1
f 79/1/1 78/1/1 77/1/1
f 80/1/1 78/1/1 79/1/1
f 81/1/2 82/1/2 83/1/2
f 83/1/2 82/1/2 84/1/2
f 85/1/2 86/1/2 89/1/2
f 89/1/2 86/1/2 90/1/2
f 87/1/2 88/1/2 91/1/2
f 91/1/2 88/1/2 92/1/2
f 93/1/2 94/1/2 97/1/2
f 97/1/2 94/1/2 98/1/2
f 95/1/2 96/1/2 99/1/2
f 99/1/2 96/1/2 100/1/2
f 101/1/2 102/1/2 105/1/2
f 105/1/2 102/1/2 106/1/2
f 103/1/2 104/1/2 107/1/2
f 107/1/2 104/1/2 108/1/2
f 109/2/2 110/2/2 111/2/2
f 111/2/2 110/2/2 112/2/2
f 113/1/2 114/1/2 117/1/2
f 117/1/2 114/1/2 118/1/2
f 115/1/2 116/1/2 119/1/2
f 119/1/2 116/1/2 120/1/2
f 121/2/2 122/2/2 125/2/2
f 125/2/2 122/2/2 126/2/2
f 123/2/2 124/2/2 127/2/2
f 127/2/2 124/2/2 128/2/2
f 129/3/2 130/3/2 133/3/2
f 133/3/2 130/3/2 134/3/2
f 131/3/2 132/3/2 135/3/2
f 135/3/2 132/3/2 136/3/2
f 137/3/2 138/3/2 141/3/2
f 141/3/2 138/3/2 142/3/2
f 139/3/2 140/3/2 143/3/2
f 143/3/2 140/3/2 144/3/2
f 145/3/2 146/3/2 149/3/2
f 149/3/2 146/3/2 150/3/2
f 147/3/2 148/3/2 151/3/2
f 151/3/2 148/3/2 152/3/2
f 153/3/2 154/3/2 155/3/2
f 155/3/2 154/3/2 156/3/2
f 157/1/2 158/1/2 159/1/2
f 159/1/2 158/1/2 160/1/2
f 163/1/3 162/1/3 161/1/3
f 164/1/3 162/1/3 163/1/3
f 167/3/3 166/3/3 165/3/3
f 168/3/3 166/3/3 167/3/3
f 171/3/3 170/3/3 169/3/3
f 172/3/3 170/3/3 171/3/3
f 175/3/3 174/3/3 173/3/3
f 176/3/3 174/3/3 175/3/3
f 179/3/3 178/3/3 177/3/3
f 180/3/3 178/3/3 179/3/3
f 183/3/3 182/3/3 181/3/3
f 184/3/3 182/3/3 183/3/3
f 187/3/3 186/3/3 185/3/3
f 188/3/3 186/3/3 187/3/3
f 191/3/3 190/3/3 189/3/3
f 192/3/3 190/3/3 191/3/3
f 195/2/3 194/2/3 193/2/3
f 196/2/3 194/2/3 195/2/3
f 199/2/3 198/2/3 197/2/3
f 200/2/3 198/2/3 199/2/3
f 203/1/3 202/1/3 201/1/3
f 204/1/3 202/1/3 203/1/3
f 207/1/3 206/1/3 205/1/3
f 208/1/3 206/1/3 207/1/3
f 211/2/3 210/2/3 209/2/3
f 212/2/3 210/2/3 211/2/3
f 215/1/3 214/1/3 213/1/3
f 216/1/3 214/1/3 215/1/3
f 219/1/3 218/1/3 217/1/3
f 220/1/3 218/1/3 219/1/3
f 223/1/3 222/1/3 221/1/3
f 224/1/3 222/1/3 223/1/3
f 227/1/3 226/1/3 225/1/3
f 228/1/3 226/1/3 227/1/3
f 231/1/3 230/1/3 229/1/3
f 232/1/3 230/1/3 231/1/3
f 235/1/3 234/1/3 233/1/3
f 236/1/3 234/1/3 235/1/3
f 239/1/3 238/1/3 237/1/3
f 240/1/3 238/1/3 239/1/3
f 241/1/4 242/1/4 243/1/4
f 243/1/4 242/1/4 244/1/4
f 245/1/4 246/1/4 247/1/4
f 247/1/4 246/1/4 248/1/4
f 249/1/4 250/1/4 251/1/4
f 251/1/4 250/1/4 252/1/4
f 253/1/4 254/1/4 255/1/4
f 255/1/4 254/1/4 256/1/4
f 257/1/4 258/1/4 259/1/4
f 259/1/4 258/1/4 260/1/4
f 261/1/4 262/1/4 263/1/4
f 263/1/4 262/1/4 264/1/4
f 265/1/4 266/1/4 267/1/4
f 267/1/4 266/1/4 268/1/4
f 269/2/4 270/2/4 271/2/4
f 271/2/4 270/2/4 272/2/4
f 273/1/4 274/1/4 275/1/4
f 275/1/4 274/1/4 276/1/4
f 277/1/4 278/1/4 279/1/4
f 279/1/4 278/1/4 280/1/4
f 281/2/4 282/2/4 283/2/4
f 283/2/4 282/2/4 284/2/4
f 285/2/4 286/2/4 287/2/4
f 287/2/4 286/2/4 288/2/4
f 289/3/4 290/3/4 291/3/4
f 291/3/4 290/3/4 292/3/4
f 293/3/4 294/3/4 295/3/4
f 295/3/4 294/3/4 296/3/4
f 297/3/4 298/3/4 299/3/4
f 299/3/4 298/3/4 300/3/4
f 301/3/4 302/3/4 303/3/4
f 303/3/4 302/3/4 304/3/4
f 305/3/4 306/3/4 307/3/4
f 307/3/4 306/3/4 308/3/4
f 309/3/4 310/3/4 311/3/4
f 311/3/4 310/3/4 312/3/4
f 313/3/4 314/3/4 315/3/4
f 315/3/4 314/3/4 316/3/4
f 317/1/4 318/1/4 319/1/4
f 319/1/4 318/1/4 320/1/4
f 323/1/5 322/1/5 321/1/5
f 324/1/5 322/1/5 323/1/5
f 325/1/6 326/1/6 328/1/6
f 328/1/6 326/1/6 329/1/6
f 327/1/6 328/1/6 332/1/6
f 332/1/6 328/1/6 333/1/6
f 329/1/6 330/1/6 334/1/6
f 334/1/6 330/1/6 335/1/6
f 331/1/6 332/1/6 338/1/6
f 338/1/6 332/1/6 339/1/6
f 335/1/6 336/1/6 340/1/6
f 340/1/6 336/1/6 341/1/6
f 337/1/6 338/1/6 346/1/6
f 346/1/6 338/1/6 347/1/6
f 341/1/6 342/1/6 348/1/6
f 348/1/6 342/1/6 349/1/6
f 343/4/6 344/4/6 352/4/6
f 352/4/6 344/4/6 353/4/6
f 351/4/6 352/4/6 355/4/6
f 353/4/6 354/4/6 355/4/6
f 352/4/6 353/4/6 355/4/6
f 355/4/6 354/4/6 356/4/6
f 356/4/6 354/4/6 357/4/6
f 357/4/6 354/4/6 358/4/6
f 345/1/6 346/1/6 359/1/6
f 359/1/6 346/1/6 360/1/6
f 349/1/6 350/1/6 363/1/6
f 363/1/6 350/1/6 364/1/6
f 356/4/6 357/4/6 365/4/6
f 365/4/6 357/4/6 366/4/6
f 360/1/6 361/1/6 367/1/6
f 367/1/6 361/1/6 368/1/6
f 362/1/6 363/1/6 371/1/6
f 371/1/6 363/1/6 372/1/6
f 368/1/6 369/1/6 373/1/6
f 373/1/6 369/1/6 374/1/6
f 370/1/6 371/1/6 377/1/6
f 377/1/6 371/1/6 378/1/6
f 374/1/6 375/1/6 379/1/6
f 379/1/6 375/1/6 380/1/6
f 376/1/6 377/1/6 381/1/6
f 381/1/6 377/1/6 382/1/6
f 380/1/6 381/1/6 383/1/6
f 383/1/6 381/1/6 384/1/6
f 385/1/6 386/1/6 387/1/6
f 387/1/6 386/1/6 388/1/6
f 385/1/6 387/1/6 389/1/6
f 389/1/6 387/1/6 390/1/6
f 388/1/6 386/1/6 391/1/6
f 391/1/6 386/1/6 392/1/6
f 385/1/6 389/1/6 393/1/6
f 393/1/6 389/1/6 394/1/6
f 390/3/6 391/3/6 395/3/6
f 395/3/6 391/3/6 396/3/6
f 392/1/6 386/1/6 397/1/6
f 397/1/6 386/1/6 398/1/6
f 385/1/6 393/1/6 399/1/6
f 399/1/6 393/1/6 400/1/6
f 394/3/6 395/3/6 401/3/6
f 395/2/6 396/2/6 402/2/6
f 401/3/6 395/3/6 402/3/6
f 396/3/6 397/3/6 403/3/6
f 402/2/6 396/2/6 403/2/6
f 403/3/6 397/3/6 404/3/6
f 398/1/6 386/1/6 405/1/6
f 405/1/6 386/1/6 406/1/6
f 403/2/6 404/2/6 407/2/6
f 401/2/6 402/2/6 407/2/6
f 402/2/6 403/2/6 407/2/6
f 407/2/6 404/2/6 408/2/6
f 385/1/6 399/1/6 409/1/6
f 409/1/6 399/1/6 410/1/6
f 400/3/6 401/3/6 411/3/6
f 401/2/6 407/2/6 412/2/6
f 411/3/6 401/3/6 412/3/6
f 404/3/6 405/3/6 413/3/6
f 408/2/6 404/2/6 413/2/6
f 413/3/6 405/3/6 414/3/6
f 406/1/6 386/1/6 415/1/6
f 415/1/6 386/1/6 416/1/6
f 412/2/6 407/2/6 417/2/6
f 411/2/6 412/2/6 417/2/6
f 417/2/6 407/2/6 418/2/6
f 413/2/6 414/2/6 419/2/6
f 408/2/6 413/2/6 419/2/6
f 419/2/6 414/2/6 420/2/6
f 411/2/6 417/2/6 421/2/6
f 420/2/6 414/2/6 424/2/6
f 385/1/6 409/1/6 425/1/6
f 410/3/6 411/3/6 426/3/6
f 421/2/6 422/2/6 427/2/6
f 411/2/6 421/2/6 427/2/6
f 426/3/6 411/3/6 427/3/6
f 427/2/6 422/2/6 428/2/6
f 423/2/6 424/2/6 429/2/6
f 424/2/6 414/2/6 429/2/6
f 414/3/6 415/3/6 430/3/6
f 429/2/6 414/2/6 430/2/6
f 430/3/6 415/3/6 431/3/6
f 416/1/6 386/1/6 432/1/6
f 428/2/6 422/2/6 433/2/6
f 423/2/6 429/2/6 434/2/6
f 425/1/6 426/1/6 435/1/6
f 427/3/6 428/3/6 436/3/6
f 433/2/6 434/2/6 437/2/6
f 428/2/6 433/2/6 437/2/6
f 436/3/6 428/3/6 437/3/6
f 437/2/6 434/2/6 438/2/6
f 434/2/6 429/2/6 439/2/6
f 438/2/6 434/2/6 439/2/6
f 429/3/6 430/3/6 440/3/6
f 439/2/6 429/2/6 440/2/6
f 440/3/6 430/3/6 441/3/6
f 431/1/6 432/1/6 442/1/6
f 435/1/6 436/1/6 443/1/6
f 437/3/6 438/3/6 444/3/6
f 438/2/6 439/2/6 445/2/6
f 444/3/6 438/3/6 445/3/6
f 439/3/6 440/3/6 446/3/6
f 445/2/6 439/2/6 446/2/6
f 446/3/6 440/3/6 447/3/6
f 441/1/6 442/1/6 448/1/6
f 443/1/6 444/1/6 449/1/6
f 445/3/6 446/3/6 450/3/6
f 450/3/6 446/3/6 451/3/6
f 447/1/6 448/1/6 452/1/6
f 449/1/6 450/1/6 453/1/6
f 451/1/6 452/1/6 454/1/6
f 449/1/6 453/1/6 455/1/6
f 453/1/6 454/1/6 455/1/6
f 385/1/6 425/1/6 455/1/6
f 425/1/6 435/1/6 455/1/6
f 435/1/6 443/1/6 455/1/6
f 443/1/6 449/1/6 455/1/6
f 454/1/6 452/1/6 456/1/6
f 455/1/6 454/1/6 456/1/6
f 442/1/6 432/1/6 456/1/6
f 432/1/6 386/1/6 456/1/6
f 448/1/6 442/1/6 456/1/6
f 452/1/6 448/1/6 456/1/6
