# MagicaVoxel @ Ephtracy

# group
o 

# material
mtllib bugbody.vox.mtl
usemtl palette

# normals
vn -1 0 0
vn 1 0 0
vn 0 0 1
vn 0 0 -1
vn 0 -1 0
vn 0 1 0

# texcoords
vt 0.841797 0.5
vt 0.982422 0.5

# verts
v -0.4 0.1 -1.49012e-08
v -0.4 0.1 -0.1
v -0.4 0.2 -1.49012e-08
v -0.4 0.2 -0.1
v -0.3 0.1 0.1
v -0.3 0.1 -1.49012e-08
v -0.3 0.1 -0.1
v -0.3 0.1 -0.2
v -0.3 0.2 0.1
v -0.3 0.2 -1.49012e-08
v -0.3 0.2 -0.1
v -0.3 0.2 -0.2
v -0.3 0.3 -1.49012e-08
v -0.3 0.3 -0.1
v -0.2 0.2 0.1
v -0.2 0.2 -1.49012e-08
v -0.2 0.2 -0.1
v -0.2 0.2 -0.2
v -0.2 0.3 0.1
v -0.2 0.3 -1.49012e-08
v -0.2 0.3 -0.1
v -0.2 0.3 -0.2
v 0.2 0.1 0.1
v 0.2 0.1 -0.2
v 0.2 0.2 0.1
v 0.2 0.2 -1.49012e-08
v 0.2 0.2 -0.1
v 0.2 0.2 -0.2
v 0.2 0.3 0.1
v 0.2 0.3 -1.49012e-08
v 0.2 0.3 -0.1
v 0.2 0.3 -0.2
v -0.3 0.1 0.1
v -0.3 0.2 0.1
v -0.2 0.2 0.1
v -0.2 0.3 0.1
v 0.1 0.2 0.1
v 0.1 0.3 0.1
v 0.2 0.1 0.1
v 0.2 0.2 0.1
v 0.2 0.3 0.1
v -0.4 0.1 -1.49012e-08
v -0.4 0.2 -1.49012e-08
v -0.3 0.1 -1.49012e-08
v -0.3 0.2 -1.49012e-08
v -0.3 0.3 -1.49012e-08
v -0.2 0.2 -1.49012e-08
v -0.2 0.3 -1.49012e-08
v -0.4 0.1 -0.1
v -0.4 0.2 -0.1
v -0.3 0.1 -0.1
v -0.3 0.2 -0.1
v -0.3 0.3 -0.1
v -0.2 0.2 -0.1
v -0.2 0.3 -0.1
v -0.3 0.1 -0.2
v -0.3 0.2 -0.2
v -0.2 0.2 -0.2
v -0.2 0.3 -0.2
v 0.1 0.2 -0.2
v 0.1 0.3 -0.2
v 0.2 0.1 -0.2
v 0.2 0.2 -0.2
v 0.2 0.3 -0.2
v -0.3 0.1 0.1
v 0.2 0.1 0.1
v -0.4 0.1 -1.49012e-08
v -0.3 0.1 -1.49012e-08
v -0.4 0.1 -0.1
v -0.3 0.1 -0.1
v -0.3 0.1 -0.2
v 0.2 0.1 -0.2
v -0.3 0.2 0.1
v -0.2 0.2 0.1
v -0.4 0.2 -1.49012e-08
v -0.3 0.2 -1.49012e-08
v -0.2 0.2 -1.49012e-08
v -0.4 0.2 -0.1
v -0.3 0.2 -0.1
v -0.2 0.2 -0.1
v -0.3 0.2 -0.2
v -0.2 0.2 -0.2
v -0.2 0.3 0.1
v 0.1 0.3 0.1
v 0.2 0.3 0.1
v -0.3 0.3 -1.49012e-08
v -0.2 0.3 -1.49012e-08
v 0.1 0.3 -1.49012e-08
v 0.2 0.3 -1.49012e-08
v -0.3 0.3 -0.1
v -0.2 0.3 -0.1
v 0.1 0.3 -0.1
v 0.2 0.3 -0.1
v -0.2 0.3 -0.2
v 0.1 0.3 -0.2
v 0.2 0.3 -0.2

# faces
f 3/2/1 2/2/1 1/2/1
f 4/2/1 2/2/1 3/2/1
f 9/2/1 6/2/1 5/2/1
f 10/2/1 6/2/1 9/2/1
f 11/2/1 8/2/1 7/2/1
f 12/2/1 8/2/1 11/2/1
f 13/2/1 11/2/1 10/2/1
f 14/2/1 11/2/1 13/2/1
f 19/2/1 16/2/1 15/2/1
f 20/2/1 16/2/1 19/2/1
f 21/2/1 18/2/1 17/2/1
f 22/2/1 18/2/1 21/2/1
f 23/2/2 24/2/2 25/2/2
f 25/2/2 24/2/2 26/2/2
f 26/2/2 24/2/2 27/2/2
f 27/2/2 24/2/2 28/2/2
f 25/1/2 26/1/2 29/1/2
f 26/2/2 27/2/2 30/2/2
f 29/1/2 26/1/2 30/1/2
f 27/1/2 28/1/2 31/1/2
f 30/2/2 27/2/2 31/2/2
f 31/1/2 28/1/2 32/1/2
f 35/2/3 34/2/3 33/2/3
f 37/2/3 35/2/3 33/2/3
f 37/2/3 36/2/3 35/2/3
f 38/2/3 36/2/3 37/2/3
f 39/2/3 37/2/3 33/2/3
f 40/1/3 38/1/3 37/1/3
f 40/2/3 37/2/3 39/2/3
f 41/1/3 38/1/3 40/1/3
f 44/2/3 43/2/3 42/2/3
f 45/2/3 43/2/3 44/2/3
f 47/2/3 46/2/3 45/2/3
f 48/2/3 46/2/3 47/2/3
f 49/2/4 50/2/4 51/2/4
f 51/2/4 50/2/4 52/2/4
f 52/2/4 53/2/4 54/2/4
f 54/2/4 53/2/4 55/2/4
f 56/2/4 57/2/4 58/2/4
f 56/2/4 58/2/4 60/2/4
f 58/2/4 59/2/4 60/2/4
f 60/2/4 59/2/4 61/2/4
f 56/2/4 60/2/4 62/2/4
f 60/1/4 61/1/4 63/1/4
f 62/2/4 60/2/4 63/2/4
f 63/1/4 61/1/4 64/1/4
f 68/2/5 66/2/5 65/2/5
f 69/2/5 68/2/5 67/2/5
f 70/2/5 66/2/5 68/2/5
f 70/2/5 68/2/5 69/2/5
f 71/2/5 66/2/5 70/2/5
f 72/2/5 66/2/5 71/2/5
f 73/2/6 74/2/6 76/2/6
f 76/2/6 74/2/6 77/2/6
f 75/2/6 76/2/6 78/2/6
f 78/2/6 76/2/6 79/2/6
f 79/2/6 80/2/6 81/2/6
f 81/2/6 80/2/6 82/2/6
f 83/2/6 84/2/6 87/2/6
f 84/1/6 85/1/6 88/1/6
f 87/2/6 84/2/6 88/2/6
f 88/1/6 85/1/6 89/1/6
f 86/2/6 87/2/6 90/2/6
f 87/2/6 88/2/6 90/2/6
f 88/2/6 89/2/6 90/2/6
f 90/2/6 89/2/6 91/2/6
f 91/2/6 89/2/6 92/2/6
f 92/2/6 89/2/6 93/2/6
f 91/2/6 92/2/6 94/2/6
f 92/1/6 93/1/6 95/1/6
f 94/2/6 92/2/6 95/2/6
f 95/1/6 93/1/6 96/1/6
