# MagicaVoxel @ Ephtracy

# group
o 

# material
mtllib _cpuwithpaste.vox.mtl
usemtl palette

# normals
vn -1 0 0
vn 1 0 0
vn 0 0 1
vn 0 0 -1
vn 0 -1 0
vn 0 1 0

# texcoords
vt 0.0214844 0.5
vt 0.900391 0.5
vt 0.966797 0.5
vt 0.970703 0.5
vt 0.990234 0.5
vt 0.994141 0.5

# verts
v -0.5 0 0.5
v -0.5 0 0.3
v -0.5 0 0.2
v -0.5 0 0.1
v -0.5 0 0
v -0.5 0 -0.1
v -0.5 0 -0.2
v -0.5 0 -0.3
v -0.5 0 -0.4
v -0.5 0 -0.5
v -0.5 0.1 0.5
v -0.5 0.1 0.3
v -0.5 0.1 0.2
v -0.5 0.1 0.1
v -0.5 0.1 0
v -0.5 0.1 -0.1
v -0.5 0.1 -0.2
v -0.5 0.1 -0.3
v -0.5 0.1 -0.4
v -0.5 0.1 -0.5
v -0.4 0.1 0.4
v -0.4 0.1 0.3
v -0.4 0.1 0.2
v -0.4 0.1 0.1
v -0.4 0.1 0
v -0.4 0.1 -0.1
v -0.4 0.1 -0.2
v -0.4 0.1 -0.3
v -0.4 0.1 -0.4
v -0.4 0.2 0.4
v -0.4 0.2 -0.4
v -0.3 0.2 0.3
v -0.3 0.2 0.2
v -0.3 0.2 -0.2
v -0.3 0.2 -0.3
v -0.3 0.3 0.3
v -0.3 0.3 0.2
v -0.3 0.3 -0.2
v -0.3 0.3 -0.3
v -0.2 0.2 0.2
v -0.2 0.2 0.1
v -0.2 0.2 -0.1
v -0.2 0.2 -0.2
v -0.2 0.3 0.2
v -0.2 0.3 0.1
v -0.2 0.3 -0.1
v -0.2 0.3 -0.2
v -0.1 0.2 0.1
v -0.1 0.2 -0.1
v -0.1 0.3 0.1
v -0.1 0.3 -0.1
v 0.2 0.2 0.2
v 0.2 0.2 0.1
v 0.2 0.2 -0.1
v 0.2 0.2 -0.2
v 0.2 0.3 0.2
v 0.2 0.3 0.1
v 0.2 0.3 -0.1
v 0.2 0.3 -0.2
v 0.3 0.2 0.3
v 0.3 0.2 0.2
v 0.3 0.2 -0.2
v 0.3 0.2 -0.3
v 0.3 0.3 0.3
v 0.3 0.3 0.2
v 0.3 0.3 -0.2
v 0.3 0.3 -0.3
v -0.2 0.2 0.3
v -0.2 0.2 0.2
v -0.2 0.2 -0.2
v -0.2 0.2 -0.3
v -0.2 0.3 0.3
v -0.2 0.3 0.2
v -0.2 0.3 -0.2
v -0.2 0.3 -0.3
v -0.1 0.2 0.2
v -0.1 0.2 0.1
v -0.1 0.2 -0.1
v -0.1 0.2 -0.2
v -0.1 0.3 0.2
v -0.1 0.3 0.1
v -0.1 0.3 -0.1
v -0.1 0.3 -0.2
v 0.2 0.2 0.1
v 0.2 0.2 0
v 0.2 0.2 -0.1
v 0.2 0.3 0.1
v 0.2 0.3 -0.1
v 0.3 0.2 0.2
v 0.3 0.2 0.1
v 0.3 0.2 -0.1
v 0.3 0.2 -0.2
v 0.3 0.3 0.2
v 0.3 0.3 0.1
v 0.3 0.3 -0.1
v 0.3 0.3 -0.2
v 0.4 0.2 0.3
v 0.4 0.2 0.2
v 0.4 0.2 -0.2
v 0.4 0.2 -0.3
v 0.4 0.3 0.3
v 0.4 0.3 0.2
v 0.4 0.3 -0.2
v 0.4 0.3 -0.3
v 0.5 0.1 0.4
v 0.5 0.1 0.3
v 0.5 0.1 0.2
v 0.5 0.1 0.1
v 0.5 0.1 0
v 0.5 0.1 -0.1
v 0.5 0.1 -0.2
v 0.5 0.1 -0.3
v 0.5 0.1 -0.4
v 0.5 0.2 0.4
v 0.5 0.2 -0.4
v 0.6 0 0.5
v 0.6 0 0.3
v 0.6 0 0.2
v 0.6 0 0.1
v 0.6 0 0
v 0.6 0 -0.1
v 0.6 0 -0.2
v 0.6 0 -0.3
v 0.6 0 -0.4
v 0.6 0 -0.5
v 0.6 0.1 0.5
v 0.6 0.1 0.3
v 0.6 0.1 0.2
v 0.6 0.1 0.1
v 0.6 0.1 0
v 0.6 0.1 -0.1
v 0.6 0.1 -0.2
v 0.6 0.1 -0.3
v 0.6 0.1 -0.4
v 0.6 0.1 -0.5
v -0.5 0 0.5
v -0.5 0.1 0.5
v -0.4 0 0.5
v -0.4 0.1 0.5
v -0.3 0 0.5
v -0.3 0.1 0.5
v -0.2 0 0.5
v -0.2 0.1 0.5
v -0.1 0 0.5
v -0.1 0.1 0.5
v 0 0 0.5
v 0 0.1 0.5
v 0.1 0 0.5
v 0.1 0.1 0.5
v 0.2 0 0.5
v 0.2 0.1 0.5
v 0.3 0 0.5
v 0.3 0.1 0.5
v 0.4 0 0.5
v 0.4 0.1 0.5
v 0.6 0 0.5
v 0.6 0.1 0.5
v -0.4 0.1 0.4
v -0.4 0.2 0.4
v -0.3 0.1 0.4
v -0.2 0.1 0.4
v -0.1 0.1 0.4
v 0 0.1 0.4
v 0.1 0.1 0.4
v 0.2 0.1 0.4
v 0.3 0.1 0.4
v 0.4 0.1 0.4
v 0.5 0.1 0.4
v 0.5 0.2 0.4
v -0.3 0.2 0.3
v -0.3 0.3 0.3
v -0.2 0.2 0.3
v -0.2 0.3 0.3
v 0.3 0.2 0.3
v 0.3 0.3 0.3
v 0.4 0.2 0.3
v 0.4 0.3 0.3
v -0.2 0.2 0.2
v -0.2 0.3 0.2
v -0.1 0.2 0.2
v -0.1 0.3 0.2
v 0.2 0.2 0.2
v 0.2 0.3 0.2
v 0.3 0.2 0.2
v 0.3 0.3 0.2
v -0.1 0.2 0.1
v -0.1 0.3 0.1
v 0.1 0.2 0.1
v 0.2 0.2 0.1
v 0.2 0.3 0.1
v -0.2 0.2 -0.1
v -0.2 0.3 -0.1
v -0.1 0.2 -0.1
v -0.1 0.3 -0.1
v 0.2 0.2 -0.1
v 0.2 0.3 -0.1
v 0.3 0.2 -0.1
v 0.3 0.3 -0.1
v -0.3 0.2 -0.2
v -0.3 0.3 -0.2
v -0.2 0.2 -0.2
v -0.2 0.3 -0.2
v 0.3 0.2 -0.2
v 0.3 0.3 -0.2
v 0.4 0.2 -0.2
v 0.4 0.3 -0.2
v -0.3 0.2 0.2
v -0.3 0.3 0.2
v -0.2 0.2 0.2
v -0.2 0.3 0.2
v 0.3 0.2 0.2
v 0.3 0.3 0.2
v 0.4 0.2 0.2
v 0.4 0.3 0.2
v -0.2 0.2 0.1
v -0.2 0.3 0.1
v -0.1 0.2 0.1
v -0.1 0.3 0.1
v 0.2 0.2 0.1
v 0.2 0.3 0.1
v 0.3 0.2 0.1
v 0.3 0.3 0.1
v -0.1 0.2 -0.1
v -0.1 0.3 -0.1
v 0.2 0.2 -0.1
v 0.2 0.3 -0.1
v -0.2 0.2 -0.2
v -0.2 0.3 -0.2
v -0.1 0.2 -0.2
v -0.1 0.3 -0.2
v 0.2 0.2 -0.2
v 0.2 0.3 -0.2
v 0.3 0.2 -0.2
v 0.3 0.3 -0.2
v -0.3 0.2 -0.3
v -0.3 0.3 -0.3
v -0.2 0.2 -0.3
v -0.2 0.3 -0.3
v 0.3 0.2 -0.3
v 0.3 0.3 -0.3
v 0.4 0.2 -0.3
v 0.4 0.3 -0.3
v -0.4 0.1 -0.4
v -0.4 0.2 -0.4
v -0.3 0.1 -0.4
v -0.2 0.1 -0.4
v -0.1 0.1 -0.4
v 0 0.1 -0.4
v 0.1 0.1 -0.4
v 0.2 0.1 -0.4
v 0.3 0.1 -0.4
v 0.4 0.1 -0.4
v 0.5 0.1 -0.4
v 0.5 0.2 -0.4
v -0.5 0 -0.5
v -0.5 0.1 -0.5
v -0.3 0 -0.5
v -0.3 0.1 -0.5
v -0.2 0 -0.5
v -0.2 0.1 -0.5
v -0.1 0 -0.5
v -0.1 0.1 -0.5
v 0 0 -0.5
v 0 0.1 -0.5
v 0.1 0 -0.5
v 0.1 0.1 -0.5
v 0.2 0 -0.5
v 0.2 0.1 -0.5
v 0.3 0 -0.5
v 0.3 0.1 -0.5
v 0.4 0 -0.5
v 0.4 0.1 -0.5
v 0.5 0 -0.5
v 0.5 0.1 -0.5
v 0.6 0 -0.5
v 0.6 0.1 -0.5
v -0.5 0 0.5
v -0.4 0 0.5
v -0.3 0 0.5
v -0.2 0 0.5
v -0.1 0 0.5
v 0 0 0.5
v 0.1 0 0.5
v 0.2 0 0.5
v 0.3 0 0.5
v 0.4 0 0.5
v 0.6 0 0.5
v -0.4 0 0.4
v -0.3 0 0.4
v -0.2 0 0.4
v -0.1 0 0.4
v 0 0 0.4
v 0.1 0 0.4
v 0.2 0 0.4
v 0.3 0 0.4
v 0.4 0 0.4
v -0.5 0 0.3
v -0.4 0 0.3
v 0.5 0 0.3
v 0.6 0 0.3
v -0.5 0 0.2
v -0.4 0 0.2
v 0.5 0 0.2
v 0.6 0 0.2
v -0.5 0 0.1
v -0.4 0 0.1
v 0.5 0 0.1
v 0.6 0 0.1
v -0.5 0 0
v -0.4 0 0
v 0.5 0 0
v 0.6 0 0
v -0.5 0 -0.1
v -0.4 0 -0.1
v 0.5 0 -0.1
v 0.6 0 -0.1
v -0.5 0 -0.2
v -0.4 0 -0.2
v 0.5 0 -0.2
v 0.6 0 -0.2
v -0.5 0 -0.3
v -0.4 0 -0.3
v 0.5 0 -0.3
v 0.6 0 -0.3
v -0.5 0 -0.4
v -0.4 0 -0.4
v -0.3 0 -0.4
v -0.2 0 -0.4
v -0.1 0 -0.4
v 0 0 -0.4
v 0.1 0 -0.4
v 0.2 0 -0.4
v 0.3 0 -0.4
v 0.4 0 -0.4
v 0.5 0 -0.4
v 0.6 0 -0.4
v -0.5 0 -0.5
v -0.3 0 -0.5
v -0.2 0 -0.5
v -0.1 0 -0.5
v 0 0 -0.5
v 0.1 0 -0.5
v 0.2 0 -0.5
v 0.3 0 -0.5
v 0.4 0 -0.5
v 0.5 0 -0.5
v 0.6 0 -0.5
v -0.5 0.1 0.5
v -0.4 0.1 0.5
v -0.3 0.1 0.5
v -0.2 0.1 0.5
v -0.1 0.1 0.5
v 0 0.1 0.5
v 0.1 0.1 0.5
v 0.2 0.1 0.5
v 0.3 0.1 0.5
v 0.4 0.1 0.5
v 0.6 0.1 0.5
v -0.4 0.1 0.4
v -0.3 0.1 0.4
v -0.2 0.1 0.4
v -0.1 0.1 0.4
v 0 0.1 0.4
v 0.1 0.1 0.4
v 0.2 0.1 0.4
v 0.3 0.1 0.4
v 0.4 0.1 0.4
v 0.5 0.1 0.4
v -0.5 0.1 0.3
v -0.4 0.1 0.3
v 0.5 0.1 0.3
v 0.6 0.1 0.3
v -0.5 0.1 0.2
v -0.4 0.1 0.2
v 0.5 0.1 0.2
v 0.6 0.1 0.2
v -0.5 0.1 0.1
v -0.4 0.1 0.1
v 0.5 0.1 0.1
v 0.6 0.1 0.1
v -0.5 0.1 0
v -0.4 0.1 0
v 0.5 0.1 0
v 0.6 0.1 0
v -0.5 0.1 -0.1
v -0.4 0.1 -0.1
v 0.5 0.1 -0.1
v 0.6 0.1 -0.1
v -0.5 0.1 -0.2
v -0.4 0.1 -0.2
v 0.5 0.1 -0.2
v 0.6 0.1 -0.2
v -0.5 0.1 -0.3
v -0.4 0.1 -0.3
v 0.5 0.1 -0.3
v 0.6 0.1 -0.3
v -0.5 0.1 -0.4
v -0.4 0.1 -0.4
v -0.3 0.1 -0.4
v -0.2 0.1 -0.4
v -0.1 0.1 -0.4
v 0 0.1 -0.4
v 0.1 0.1 -0.4
v 0.2 0.1 -0.4
v 0.3 0.1 -0.4
v 0.4 0.1 -0.4
v 0.5 0.1 -0.4
v 0.6 0.1 -0.4
v -0.5 0.1 -0.5
v -0.3 0.1 -0.5
v -0.2 0.1 -0.5
v -0.1 0.1 -0.5
v 0 0.1 -0.5
v 0.1 0.1 -0.5
v 0.2 0.1 -0.5
v 0.3 0.1 -0.5
v 0.4 0.1 -0.5
v 0.5 0.1 -0.5
v 0.6 0.1 -0.5
v -0.4 0.2 0.4
v 0.5 0.2 0.4
v -0.3 0.2 0.3
v -0.2 0.2 0.3
v 0.3 0.2 0.3
v 0.4 0.2 0.3
v -0.3 0.2 0.2
v -0.2 0.2 0.2
v -0.1 0.2 0.2
v 0.1 0.2 0.2
v 0.2 0.2 0.2
v 0.3 0.2 0.2
v 0.4 0.2 0.2
v -0.2 0.2 0.1
v -0.1 0.2 0.1
v 0.1 0.2 0.1
v 0.2 0.2 0.1
v 0.3 0.2 0.1
v 0.2 0.2 0
v 0.3 0.2 0
v -0.2 0.2 -0.1
v -0.1 0.2 -0.1
v 0.2 0.2 -0.1
v 0.3 0.2 -0.1
v -0.3 0.2 -0.2
v -0.2 0.2 -0.2
v -0.1 0.2 -0.2
v 0.2 0.2 -0.2
v 0.3 0.2 -0.2
v 0.4 0.2 -0.2
v -0.3 0.2 -0.3
v -0.2 0.2 -0.3
v 0.3 0.2 -0.3
v 0.4 0.2 -0.3
v -0.4 0.2 -0.4
v 0.5 0.2 -0.4
v -0.3 0.3 0.3
v -0.2 0.3 0.3
v 0.3 0.3 0.3
v 0.4 0.3 0.3
v -0.3 0.3 0.2
v -0.2 0.3 0.2
v -0.1 0.3 0.2
v 0.2 0.3 0.2
v 0.3 0.3 0.2
v 0.4 0.3 0.2
v -0.2 0.3 0.1
v -0.1 0.3 0.1
v 0.2 0.3 0.1
v 0.3 0.3 0.1
v -0.2 0.3 -0.1
v -0.1 0.3 -0.1
v 0.2 0.3 -0.1
v 0.3 0.3 -0.1
v -0.3 0.3 -0.2
v -0.2 0.3 -0.2
v -0.1 0.3 -0.2
v 0.2 0.3 -0.2
v 0.3 0.3 -0.2
v 0.4 0.3 -0.2
v -0.3 0.3 -0.3
v -0.2 0.3 -0.3
v 0.3 0.3 -0.3
v 0.4 0.3 -0.3

# faces
f 11/2/1 2/2/1 1/2/1
f 12/3/1 3/3/1 2/3/1
f 12/2/1 2/2/1 11/2/1
f 13/2/1 4/2/1 3/2/1
f 13/3/1 3/3/1 12/3/1
f 14/3/1 5/3/1 4/3/1
f 14/2/1 4/2/1 13/2/1
f 15/2/1 6/2/1 5/2/1
f 15/3/1 5/3/1 14/3/1
f 16/3/1 7/3/1 6/3/1
f 16/2/1 6/2/1 15/2/1
f 17/2/1 8/2/1 7/2/1
f 17/3/1 7/3/1 16/3/1
f 18/3/1 9/3/1 8/3/1
f 18/2/1 8/2/1 17/2/1
f 19/2/1 10/2/1 9/2/1
f 19/3/1 9/3/1 18/3/1
f 20/2/1 10/2/1 19/2/1
f 30/6/1 22/6/1 21/6/1
f 30/6/1 29/6/1 28/6/1
f 30/6/1 28/6/1 27/6/1
f 30/6/1 27/6/1 26/6/1
f 30/6/1 26/6/1 25/6/1
f 30/6/1 25/6/1 24/6/1
f 30/6/1 24/6/1 23/6/1
f 30/6/1 23/6/1 22/6/1
f 31/6/1 29/6/1 30/6/1
f 36/5/1 33/5/1 32/5/1
f 37/5/1 33/5/1 36/5/1
f 38/5/1 35/5/1 34/5/1
f 39/5/1 35/5/1 38/5/1
f 44/5/1 41/5/1 40/5/1
f 45/5/1 41/5/1 44/5/1
f 46/5/1 43/5/1 42/5/1
f 47/5/1 43/5/1 46/5/1
f 50/5/1 49/5/1 48/5/1
f 51/5/1 49/5/1 50/5/1
f 56/5/1 53/5/1 52/5/1
f 57/5/1 53/5/1 56/5/1
f 58/5/1 55/5/1 54/5/1
f 59/5/1 55/5/1 58/5/1
f 64/5/1 61/5/1 60/5/1
f 65/5/1 61/5/1 64/5/1
f 66/5/1 63/5/1 62/5/1
f 67/5/1 63/5/1 66/5/1
f 68/5/2 69/5/2 72/5/2
f 72/5/2 69/5/2 73/5/2
f 70/5/2 71/5/2 74/5/2
f 74/5/2 71/5/2 75/5/2
f 76/5/2 77/5/2 80/5/2
f 80/5/2 77/5/2 81/5/2
f 78/5/2 79/5/2 82/5/2
f 82/5/2 79/5/2 83/5/2
f 84/5/2 85/5/2 87/5/2
f 85/5/2 86/5/2 87/5/2
f 87/5/2 86/5/2 88/5/2
f 89/5/2 90/5/2 93/5/2
f 93/5/2 90/5/2 94/5/2
f 91/5/2 92/5/2 95/5/2
f 95/5/2 92/5/2 96/5/2
f 97/5/2 98/5/2 101/5/2
f 101/5/2 98/5/2 102/5/2
f 99/5/2 100/5/2 103/5/2
f 103/5/2 100/5/2 104/5/2
f 105/6/2 106/6/2 114/6/2
f 112/6/2 113/6/2 114/6/2
f 111/6/2 112/6/2 114/6/2
f 110/6/2 111/6/2 114/6/2
f 109/6/2 110/6/2 114/6/2
f 108/6/2 109/6/2 114/6/2
f 107/6/2 108/6/2 114/6/2
f 106/6/2 107/6/2 114/6/2
f 114/6/2 113/6/2 115/6/2
f 116/2/2 117/2/2 126/2/2
f 117/3/2 118/3/2 127/3/2
f 126/2/2 117/2/2 127/2/2
f 118/2/2 119/2/2 128/2/2
f 127/3/2 118/3/2 128/3/2
f 119/3/2 120/3/2 129/3/2
f 128/2/2 119/2/2 129/2/2
f 120/2/2 121/2/2 130/2/2
f 129/3/2 120/3/2 130/3/2
f 121/3/2 122/3/2 131/3/2
f 130/2/2 121/2/2 131/2/2
f 122/2/2 123/2/2 132/2/2
f 131/3/2 122/3/2 132/3/2
f 123/3/2 124/3/2 133/3/2
f 132/2/2 123/2/2 133/2/2
f 124/2/2 125/2/2 134/2/2
f 133/3/2 124/3/2 134/3/2
f 134/2/2 125/2/2 135/2/2
f 138/2/3 137/2/3 136/2/3
f 139/2/3 137/2/3 138/2/3
f 140/1/3 139/1/3 138/1/3
f 141/1/3 139/1/3 140/1/3
f 142/3/3 141/3/3 140/3/3
f 143/3/3 141/3/3 142/3/3
f 144/2/3 143/2/3 142/2/3
f 145/2/3 143/2/3 144/2/3
f 146/3/3 145/3/3 144/3/3
f 147/3/3 145/3/3 146/3/3
f 148/2/3 147/2/3 146/2/3
f 149/2/3 147/2/3 148/2/3
f 150/3/3 149/3/3 148/3/3
f 151/3/3 149/3/3 150/3/3
f 152/1/3 151/1/3 150/1/3
f 153/1/3 151/1/3 152/1/3
f 154/3/3 153/3/3 152/3/3
f 155/3/3 153/3/3 154/3/3
f 156/2/3 155/2/3 154/2/3
f 157/2/3 155/2/3 156/2/3
f 160/6/3 159/6/3 158/6/3
f 161/6/3 159/6/3 160/6/3
f 162/6/3 159/6/3 161/6/3
f 163/6/3 159/6/3 162/6/3
f 164/6/3 159/6/3 163/6/3
f 165/6/3 159/6/3 164/6/3
f 166/6/3 159/6/3 165/6/3
f 167/6/3 159/6/3 166/6/3
f 168/6/3 159/6/3 167/6/3
f 169/6/3 159/6/3 168/6/3
f 172/5/3 171/5/3 170/5/3
f 173/5/3 171/5/3 172/5/3
f 176/5/3 175/5/3 174/5/3
f 177/5/3 175/5/3 176/5/3
f 180/5/3 179/5/3 178/5/3
f 181/5/3 179/5/3 180/5/3
f 184/5/3 183/5/3 182/5/3
f 185/5/3 183/5/3 184/5/3
f 188/5/3 187/5/3 186/5/3
f 189/5/3 187/5/3 188/5/3
f 190/5/3 187/5/3 189/5/3
f 193/5/3 192/5/3 191/5/3
f 194/5/3 192/5/3 193/5/3
f 197/5/3 196/5/3 195/5/3
f 198/5/3 196/5/3 197/5/3
f 201/5/3 200/5/3 199/5/3
f 202/5/3 200/5/3 201/5/3
f 205/5/3 204/5/3 203/5/3
f 206/5/3 204/5/3 205/5/3
f 207/5/4 208/5/4 209/5/4
f 209/5/4 208/5/4 210/5/4
f 211/5/4 212/5/4 213/5/4
f 213/5/4 212/5/4 214/5/4
f 215/5/4 216/5/4 217/5/4
f 217/5/4 216/5/4 218/5/4
f 219/5/4 220/5/4 221/5/4
f 221/5/4 220/5/4 222/5/4
f 223/5/4 224/5/4 225/5/4
f 225/5/4 224/5/4 226/5/4
f 227/5/4 228/5/4 229/5/4
f 229/5/4 228/5/4 230/5/4
f 231/5/4 232/5/4 233/5/4
f 233/5/4 232/5/4 234/5/4
f 235/5/4 236/5/4 237/5/4
f 237/5/4 236/5/4 238/5/4
f 239/5/4 240/5/4 241/5/4
f 241/5/4 240/5/4 242/5/4
f 243/6/4 244/6/4 245/6/4
f 245/6/4 244/6/4 246/6/4
f 246/6/4 244/6/4 247/6/4
f 247/6/4 244/6/4 248/6/4
f 248/6/4 244/6/4 249/6/4
f 249/6/4 244/6/4 250/6/4
f 250/6/4 244/6/4 251/6/4
f 251/6/4 244/6/4 252/6/4
f 252/6/4 244/6/4 253/6/4
f 253/6/4 244/6/4 254/6/4
f 255/2/4 256/2/4 257/2/4
f 257/2/4 256/2/4 258/2/4
f 257/3/4 258/3/4 259/3/4
f 259/3/4 258/3/4 260/3/4
f 259/1/4 260/1/4 261/1/4
f 261/1/4 260/1/4 262/1/4
f 261/3/4 262/3/4 263/3/4
f 263/3/4 262/3/4 264/3/4
f 263/2/4 264/2/4 265/2/4
f 265/2/4 264/2/4 266/2/4
f 265/3/4 266/3/4 267/3/4
f 267/3/4 266/3/4 268/3/4
f 267/2/4 268/2/4 269/2/4
f 269/2/4 268/2/4 270/2/4
f 269/3/4 270/3/4 271/3/4
f 271/3/4 270/3/4 272/3/4
f 271/1/4 272/1/4 273/1/4
f 273/1/4 272/1/4 274/1/4
f 273/2/4 274/2/4 275/2/4
f 275/2/4 274/2/4 276/2/4
f 288/2/5 278/2/5 277/2/5
f 288/1/5 279/1/5 278/1/5
f 289/3/5 280/3/5 279/3/5
f 289/1/5 279/1/5 288/1/5
f 290/2/5 281/2/5 280/2/5
f 290/3/5 280/3/5 289/3/5
f 291/3/5 282/3/5 281/3/5
f 291/2/5 281/2/5 290/2/5
f 292/2/5 283/2/5 282/2/5
f 292/3/5 282/3/5 291/3/5
f 293/3/5 284/3/5 283/3/5
f 293/2/5 283/2/5 292/2/5
f 294/1/5 285/1/5 284/1/5
f 294/3/5 284/3/5 293/3/5
f 295/3/5 286/3/5 285/3/5
f 295/1/5 285/1/5 294/1/5
f 296/2/5 287/2/5 286/2/5
f 296/3/5 286/3/5 295/3/5
f 297/2/5 295/2/5 294/2/5
f 297/2/5 294/2/5 293/2/5
f 297/2/5 296/2/5 295/2/5
f 297/2/5 293/2/5 292/2/5
f 297/2/5 292/2/5 291/2/5
f 297/2/5 291/2/5 290/2/5
f 297/2/5 290/2/5 289/2/5
f 297/2/5 289/2/5 288/2/5
f 297/2/5 288/2/5 277/2/5
f 298/2/5 296/2/5 297/2/5
f 299/2/5 287/2/5 296/2/5
f 299/2/5 296/2/5 298/2/5
f 300/2/5 287/2/5 299/2/5
f 301/3/5 298/3/5 297/3/5
f 302/2/5 299/2/5 298/2/5
f 302/3/5 298/3/5 301/3/5
f 303/3/5 300/3/5 299/3/5
f 303/2/5 299/2/5 302/2/5
f 304/3/5 300/3/5 303/3/5
f 305/2/5 302/2/5 301/2/5
f 305/2/5 303/2/5 302/2/5
f 305/2/5 304/2/5 303/2/5
f 306/2/5 304/2/5 305/2/5
f 307/2/5 304/2/5 306/2/5
f 308/2/5 304/2/5 307/2/5
f 309/3/5 306/3/5 305/3/5
f 310/2/5 307/2/5 306/2/5
f 310/3/5 306/3/5 309/3/5
f 311/3/5 308/3/5 307/3/5
f 311/2/5 307/2/5 310/2/5
f 312/3/5 308/3/5 311/3/5
f 313/2/5 310/2/5 309/2/5
f 313/2/5 311/2/5 310/2/5
f 313/2/5 312/2/5 311/2/5
f 314/2/5 312/2/5 313/2/5
f 315/2/5 312/2/5 314/2/5
f 316/2/5 312/2/5 315/2/5
f 317/3/5 314/3/5 313/3/5
f 318/2/5 315/2/5 314/2/5
f 318/3/5 314/3/5 317/3/5
f 319/3/5 316/3/5 315/3/5
f 319/2/5 315/2/5 318/2/5
f 320/3/5 316/3/5 319/3/5
f 321/2/5 318/2/5 317/2/5
f 321/2/5 319/2/5 318/2/5
f 321/2/5 320/2/5 319/2/5
f 322/2/5 320/2/5 321/2/5
f 323/2/5 320/2/5 322/2/5
f 324/2/5 320/2/5 323/2/5
f 325/3/5 322/3/5 321/3/5
f 326/2/5 323/2/5 322/2/5
f 326/3/5 322/3/5 325/3/5
f 327/2/5 323/2/5 326/2/5
f 328/2/5 323/2/5 327/2/5
f 329/2/5 323/2/5 328/2/5
f 330/2/5 323/2/5 329/2/5
f 331/2/5 323/2/5 330/2/5
f 332/2/5 323/2/5 331/2/5
f 333/2/5 323/2/5 332/2/5
f 334/2/5 323/2/5 333/2/5
f 335/3/5 324/3/5 323/3/5
f 335/2/5 323/2/5 334/2/5
f 336/3/5 324/3/5 335/3/5
f 337/2/5 326/2/5 325/2/5
f 337/2/5 327/2/5 326/2/5
f 338/3/5 328/3/5 327/3/5
f 338/2/5 327/2/5 337/2/5
f 339/1/5 329/1/5 328/1/5
f 339/3/5 328/3/5 338/3/5
f 340/3/5 330/3/5 329/3/5
f 340/1/5 329/1/5 339/1/5
f 341/2/5 331/2/5 330/2/5
f 341/3/5 330/3/5 340/3/5
f 342/3/5 332/3/5 331/3/5
f 342/2/5 331/2/5 341/2/5
f 343/2/5 333/2/5 332/2/5
f 343/3/5 332/3/5 342/3/5
f 344/3/5 334/3/5 333/3/5
f 344/2/5 333/2/5 343/2/5
f 345/1/5 335/1/5 334/1/5
f 345/3/5 334/3/5 344/3/5
f 346/2/5 336/2/5 335/2/5
f 346/1/5 335/1/5 345/1/5
f 347/2/5 336/2/5 346/2/5
f 348/2/6 349/2/6 359/2/6
f 349/1/6 350/1/6 359/1/6
f 350/3/6 351/3/6 360/3/6
f 359/1/6 350/1/6 360/1/6
f 351/2/6 352/2/6 361/2/6
f 360/3/6 351/3/6 361/3/6
f 352/3/6 353/3/6 362/3/6
f 361/2/6 352/2/6 362/2/6
f 353/2/6 354/2/6 363/2/6
f 362/3/6 353/3/6 363/3/6
f 354/3/6 355/3/6 364/3/6
f 363/2/6 354/2/6 364/2/6
f 355/1/6 356/1/6 365/1/6
f 364/3/6 355/3/6 365/3/6
f 356/3/6 357/3/6 366/3/6
f 365/1/6 356/1/6 366/1/6
f 357/2/6 358/2/6 367/2/6
f 366/3/6 357/3/6 367/3/6
f 367/2/6 358/2/6 368/2/6
f 348/2/6 359/2/6 369/2/6
f 369/2/6 359/2/6 370/2/6
f 368/2/6 358/2/6 371/2/6
f 371/2/6 358/2/6 372/2/6
f 369/3/6 370/3/6 373/3/6
f 373/3/6 370/3/6 374/3/6
f 371/3/6 372/3/6 375/3/6
f 375/3/6 372/3/6 376/3/6
f 373/2/6 374/2/6 377/2/6
f 377/2/6 374/2/6 378/2/6
f 375/2/6 376/2/6 379/2/6
f 379/2/6 376/2/6 380/2/6
f 377/3/6 378/3/6 381/3/6
f 381/3/6 378/3/6 382/3/6
f 379/3/6 380/3/6 383/3/6
f 383/3/6 380/3/6 384/3/6
f 381/2/6 382/2/6 385/2/6
f 385/2/6 382/2/6 386/2/6
f 383/2/6 384/2/6 387/2/6
f 387/2/6 384/2/6 388/2/6
f 385/3/6 386/3/6 389/3/6
f 389/3/6 386/3/6 390/3/6
f 387/3/6 388/3/6 391/3/6
f 391/3/6 388/3/6 392/3/6
f 389/2/6 390/2/6 393/2/6
f 393/2/6 390/2/6 394/2/6
f 391/2/6 392/2/6 395/2/6
f 395/2/6 392/2/6 396/2/6
f 393/3/6 394/3/6 397/3/6
f 397/3/6 394/3/6 398/3/6
f 395/3/6 396/3/6 407/3/6
f 407/3/6 396/3/6 408/3/6
f 397/2/6 398/2/6 409/2/6
f 398/2/6 399/2/6 409/2/6
f 399/3/6 400/3/6 410/3/6
f 409/2/6 399/2/6 410/2/6
f 400/1/6 401/1/6 411/1/6
f 410/3/6 400/3/6 411/3/6
f 401/3/6 402/3/6 412/3/6
f 411/1/6 401/1/6 412/1/6
f 402/2/6 403/2/6 413/2/6
f 412/3/6 402/3/6 413/3/6
f 403/3/6 404/3/6 414/3/6
f 413/2/6 403/2/6 414/2/6
f 404/2/6 405/2/6 415/2/6
f 414/3/6 404/3/6 415/3/6
f 405/3/6 406/3/6 416/3/6
f 415/2/6 405/2/6 416/2/6
f 406/1/6 407/1/6 417/1/6
f 416/3/6 406/3/6 417/3/6
f 407/2/6 408/2/6 418/2/6
f 417/1/6 407/1/6 418/1/6
f 418/2/6 408/2/6 419/2/6
f 420/6/6 421/6/6 422/6/6
f 422/6/6 421/6/6 423/6/6
f 423/6/6 421/6/6 424/6/6
f 424/6/6 421/6/6 425/6/6
f 420/6/6 422/6/6 426/6/6
f 423/4/6 424/4/6 427/4/6
f 427/4/6 424/4/6 428/4/6
f 428/4/6 424/4/6 429/4/6
f 429/4/6 424/4/6 430/4/6
f 430/4/6 424/4/6 431/4/6
f 425/6/6 421/6/6 432/6/6
f 426/3/6 427/3/6 433/3/6
f 428/3/6 429/3/6 434/3/6
f 429/4/6 430/4/6 435/4/6
f 434/3/6 429/3/6 435/3/6
f 435/4/6 430/4/6 436/4/6
f 431/4/6 432/4/6 437/4/6
f 436/4/6 437/4/6 438/4/6
f 437/4/6 432/4/6 439/4/6
f 438/4/6 437/4/6 439/4/6
f 426/3/6 433/3/6 440/3/6
f 433/3/6 434/3/6 440/3/6
f 440/3/6 434/3/6 441/3/6
f 438/3/6 439/3/6 442/3/6
f 439/4/6 432/4/6 443/4/6
f 442/3/6 439/3/6 443/3/6
f 420/6/6 426/6/6 444/6/6
f 426/3/6 440/3/6 444/3/6
f 444/3/6 440/3/6 445/3/6
f 441/3/6 442/3/6 446/3/6
f 446/3/6 442/3/6 447/3/6
f 443/4/6 432/4/6 448/4/6
f 432/6/6 421/6/6 449/6/6
f 448/4/6 432/4/6 449/4/6
f 420/6/6 444/6/6 450/6/6
f 446/3/6 447/3/6 451/3/6
f 447/3/6 448/3/6 451/3/6
f 445/3/6 446/3/6 451/3/6
f 451/3/6 448/3/6 452/3/6
f 449/6/6 421/6/6 453/6/6
f 420/6/6 450/6/6 454/6/6
f 452/6/6 453/6/6 454/6/6
f 451/6/6 452/6/6 454/6/6
f 450/6/6 451/6/6 454/6/6
f 453/6/6 421/6/6 455/6/6
f 454/6/6 453/6/6 455/6/6
f 456/5/6 457/5/6 460/5/6
f 460/5/6 457/5/6 461/5/6
f 458/5/6 459/5/6 464/5/6
f 464/5/6 459/5/6 465/5/6
f 461/5/6 462/5/6 466/5/6
f 466/5/6 462/5/6 467/5/6
f 463/5/6 464/5/6 468/5/6
f 468/5/6 464/5/6 469/5/6
f 467/5/6 468/5/6 471/5/6
f 471/5/6 468/5/6 472/5/6
f 470/5/6 471/5/6 475/5/6
f 475/5/6 471/5/6 476/5/6
f 472/5/6 473/5/6 477/5/6
f 477/5/6 473/5/6 478/5/6
f 474/5/6 475/5/6 480/5/6
f 480/5/6 475/5/6 481/5/6
f 478/5/6 479/5/6 482/5/6
f 482/5/6 479/5/6 483/5/6
