# MagicaVoxel @ Ephtracy

# group
o 

# material
mtllib _cpu.vox.mtl
usemtl palette

# normals
vn -1 0 0
vn 1 0 0
vn 0 0 1
vn 0 0 -1
vn 0 -1 0
vn 0 1 0

# texcoords
vt 0.0214844 0.5
vt 0.900391 0.5
vt 0.966797 0.5
vt 0.970703 0.5
vt 0.994141 0.5

# verts
v -0.5 0 0.5
v -0.5 0 0.3
v -0.5 0 0.2
v -0.5 0 0.1
v -0.5 0 0
v -0.5 0 -0.1
v -0.5 0 -0.2
v -0.5 0 -0.3
v -0.5 0 -0.4
v -0.5 0 -0.5
v -0.5 0.1 0.5
v -0.5 0.1 0.3
v -0.5 0.1 0.2
v -0.5 0.1 0.1
v -0.5 0.1 0
v -0.5 0.1 -0.1
v -0.5 0.1 -0.2
v -0.5 0.1 -0.3
v -0.5 0.1 -0.4
v -0.5 0.1 -0.5
v -0.4 0.1 0.4
v -0.4 0.1 0.3
v -0.4 0.1 0.2
v -0.4 0.1 0.1
v -0.4 0.1 0
v -0.4 0.1 -0.1
v -0.4 0.1 -0.2
v -0.4 0.1 -0.3
v -0.4 0.1 -0.4
v -0.4 0.2 0.4
v -0.4 0.2 -0.4
v 0.5 0.1 0.4
v 0.5 0.1 0.3
v 0.5 0.1 0.2
v 0.5 0.1 0.1
v 0.5 0.1 0
v 0.5 0.1 -0.1
v 0.5 0.1 -0.2
v 0.5 0.1 -0.3
v 0.5 0.1 -0.4
v 0.5 0.2 0.4
v 0.5 0.2 -0.4
v 0.6 0 0.5
v 0.6 0 0.3
v 0.6 0 0.2
v 0.6 0 0.1
v 0.6 0 0
v 0.6 0 -0.1
v 0.6 0 -0.2
v 0.6 0 -0.3
v 0.6 0 -0.4
v 0.6 0 -0.5
v 0.6 0.1 0.5
v 0.6 0.1 0.3
v 0.6 0.1 0.2
v 0.6 0.1 0.1
v 0.6 0.1 0
v 0.6 0.1 -0.1
v 0.6 0.1 -0.2
v 0.6 0.1 -0.3
v 0.6 0.1 -0.4
v 0.6 0.1 -0.5
v -0.5 0 0.5
v -0.5 0.1 0.5
v -0.4 0 0.5
v -0.4 0.1 0.5
v -0.3 0 0.5
v -0.3 0.1 0.5
v -0.2 0 0.5
v -0.2 0.1 0.5
v -0.1 0 0.5
v -0.1 0.1 0.5
v 0 0 0.5
v 0 0.1 0.5
v 0.1 0 0.5
v 0.1 0.1 0.5
v 0.2 0 0.5
v 0.2 0.1 0.5
v 0.3 0 0.5
v 0.3 0.1 0.5
v 0.4 0 0.5
v 0.4 0.1 0.5
v 0.6 0 0.5
v 0.6 0.1 0.5
v -0.4 0.1 0.4
v -0.4 0.2 0.4
v -0.3 0.1 0.4
v -0.2 0.1 0.4
v -0.1 0.1 0.4
v 0 0.1 0.4
v 0.1 0.1 0.4
v 0.2 0.1 0.4
v 0.3 0.1 0.4
v 0.4 0.1 0.4
v 0.5 0.1 0.4
v 0.5 0.2 0.4
v -0.4 0.1 -0.4
v -0.4 0.2 -0.4
v -0.3 0.1 -0.4
v -0.2 0.1 -0.4
v -0.1 0.1 -0.4
v 0 0.1 -0.4
v 0.1 0.1 -0.4
v 0.2 0.1 -0.4
v 0.3 0.1 -0.4
v 0.4 0.1 -0.4
v 0.5 0.1 -0.4
v 0.5 0.2 -0.4
v -0.5 0 -0.5
v -0.5 0.1 -0.5
v -0.3 0 -0.5
v -0.3 0.1 -0.5
v -0.2 0 -0.5
v -0.2 0.1 -0.5
v -0.1 0 -0.5
v -0.1 0.1 -0.5
v 0 0 -0.5
v 0 0.1 -0.5
v 0.1 0 -0.5
v 0.1 0.1 -0.5
v 0.2 0 -0.5
v 0.2 0.1 -0.5
v 0.3 0 -0.5
v 0.3 0.1 -0.5
v 0.4 0 -0.5
v 0.4 0.1 -0.5
v 0.5 0 -0.5
v 0.5 0.1 -0.5
v 0.6 0 -0.5
v 0.6 0.1 -0.5
v -0.5 0 0.5
v -0.4 0 0.5
v -0.3 0 0.5
v -0.2 0 0.5
v -0.1 0 0.5
v 0 0 0.5
v 0.1 0 0.5
v 0.2 0 0.5
v 0.3 0 0.5
v 0.4 0 0.5
v 0.6 0 0.5
v -0.4 0 0.4
v -0.3 0 0.4
v -0.2 0 0.4
v -0.1 0 0.4
v 0 0 0.4
v 0.1 0 0.4
v 0.2 0 0.4
v 0.3 0 0.4
v 0.4 0 0.4
v -0.5 0 0.3
v -0.4 0 0.3
v 0.5 0 0.3
v 0.6 0 0.3
v -0.5 0 0.2
v -0.4 0 0.2
v 0.5 0 0.2
v 0.6 0 0.2
v -0.5 0 0.1
v -0.4 0 0.1
v 0.5 0 0.1
v 0.6 0 0.1
v -0.5 0 0
v -0.4 0 0
v 0.5 0 0
v 0.6 0 0
v -0.5 0 -0.1
v -0.4 0 -0.1
v 0.5 0 -0.1
v 0.6 0 -0.1
v -0.5 0 -0.2
v -0.4 0 -0.2
v 0.5 0 -0.2
v 0.6 0 -0.2
v -0.5 0 -0.3
v -0.4 0 -0.3
v 0.5 0 -0.3
v 0.6 0 -0.3
v -0.5 0 -0.4
v -0.4 0 -0.4
v -0.3 0 -0.4
v -0.2 0 -0.4
v -0.1 0 -0.4
v 0 0 -0.4
v 0.1 0 -0.4
v 0.2 0 -0.4
v 0.3 0 -0.4
v 0.4 0 -0.4
v 0.5 0 -0.4
v 0.6 0 -0.4
v -0.5 0 -0.5
v -0.3 0 -0.5
v -0.2 0 -0.5
v -0.1 0 -0.5
v 0 0 -0.5
v 0.1 0 -0.5
v 0.2 0 -0.5
v 0.3 0 -0.5
v 0.4 0 -0.5
v 0.5 0 -0.5
v 0.6 0 -0.5
v -0.5 0.1 0.5
v -0.4 0.1 0.5
v -0.3 0.1 0.5
v -0.2 0.1 0.5
v -0.1 0.1 0.5
v 0 0.1 0.5
v 0.1 0.1 0.5
v 0.2 0.1 0.5
v 0.3 0.1 0.5
v 0.4 0.1 0.5
v 0.6 0.1 0.5
v -0.4 0.1 0.4
v -0.3 0.1 0.4
v -0.2 0.1 0.4
v -0.1 0.1 0.4
v 0 0.1 0.4
v 0.1 0.1 0.4
v 0.2 0.1 0.4
v 0.3 0.1 0.4
v 0.4 0.1 0.4
v 0.5 0.1 0.4
v -0.5 0.1 0.3
v -0.4 0.1 0.3
v 0.5 0.1 0.3
v 0.6 0.1 0.3
v -0.5 0.1 0.2
v -0.4 0.1 0.2
v 0.5 0.1 0.2
v 0.6 0.1 0.2
v -0.5 0.1 0.1
v -0.4 0.1 0.1
v 0.5 0.1 0.1
v 0.6 0.1 0.1
v -0.5 0.1 0
v -0.4 0.1 0
v 0.5 0.1 0
v 0.6 0.1 0
v -0.5 0.1 -0.1
v -0.4 0.1 -0.1
v 0.5 0.1 -0.1
v 0.6 0.1 -0.1
v -0.5 0.1 -0.2
v -0.4 0.1 -0.2
v 0.5 0.1 -0.2
v 0.6 0.1 -0.2
v -0.5 0.1 -0.3
v -0.4 0.1 -0.3
v 0.5 0.1 -0.3
v 0.6 0.1 -0.3
v -0.5 0.1 -0.4
v -0.4 0.1 -0.4
v -0.3 0.1 -0.4
v -0.2 0.1 -0.4
v -0.1 0.1 -0.4
v 0 0.1 -0.4
v 0.1 0.1 -0.4
v 0.2 0.1 -0.4
v 0.3 0.1 -0.4
v 0.4 0.1 -0.4
v 0.5 0.1 -0.4
v 0.6 0.1 -0.4
v -0.5 0.1 -0.5
v -0.3 0.1 -0.5
v -0.2 0.1 -0.5
v -0.1 0.1 -0.5
v 0 0.1 -0.5
v 0.1 0.1 -0.5
v 0.2 0.1 -0.5
v 0.3 0.1 -0.5
v 0.4 0.1 -0.5
v 0.5 0.1 -0.5
v 0.6 0.1 -0.5
v -0.4 0.2 0.4
v 0.5 0.2 0.4
v -0.3 0.2 0.3
v 0.4 0.2 0.3
v -0.3 0.2 0.2
v 0.1 0.2 0.2
v 0.1 0.2 0.1
v 0.2 0.2 0.1
v 0.2 0.2 0
v 0.3 0.2 0
v -0.3 0.2 -0.3
v 0.3 0.2 -0.3
v 0.4 0.2 -0.3
v -0.4 0.2 -0.4
v 0.5 0.2 -0.4

# faces
f 11/2/1 2/2/1 1/2/1
f 12/3/1 3/3/1 2/3/1
f 12/2/1 2/2/1 11/2/1
f 13/2/1 4/2/1 3/2/1
f 13/3/1 3/3/1 12/3/1
f 14/3/1 5/3/1 4/3/1
f 14/2/1 4/2/1 13/2/1
f 15/2/1 6/2/1 5/2/1
f 15/3/1 5/3/1 14/3/1
f 16/3/1 7/3/1 6/3/1
f 16/2/1 6/2/1 15/2/1
f 17/2/1 8/2/1 7/2/1
f 17/3/1 7/3/1 16/3/1
f 18/3/1 9/3/1 8/3/1
f 18/2/1 8/2/1 17/2/1
f 19/2/1 10/2/1 9/2/1
f 19/3/1 9/3/1 18/3/1
f 20/2/1 10/2/1 19/2/1
f 30/5/1 22/5/1 21/5/1
f 30/5/1 29/5/1 28/5/1
f 30/5/1 28/5/1 27/5/1
f 30/5/1 27/5/1 26/5/1
f 30/5/1 26/5/1 25/5/1
f 30/5/1 25/5/1 24/5/1
f 30/5/1 24/5/1 23/5/1
f 30/5/1 23/5/1 22/5/1
f 31/5/1 29/5/1 30/5/1
f 32/5/2 33/5/2 41/5/2
f 39/5/2 40/5/2 41/5/2
f 38/5/2 39/5/2 41/5/2
f 37/5/2 38/5/2 41/5/2
f 36/5/2 37/5/2 41/5/2
f 35/5/2 36/5/2 41/5/2
f 34/5/2 35/5/2 41/5/2
f 33/5/2 34/5/2 41/5/2
f 41/5/2 40/5/2 42/5/2
f 43/2/2 44/2/2 53/2/2
f 44/3/2 45/3/2 54/3/2
f 53/2/2 44/2/2 54/2/2
f 45/2/2 46/2/2 55/2/2
f 54/3/2 45/3/2 55/3/2
f 46/3/2 47/3/2 56/3/2
f 55/2/2 46/2/2 56/2/2
f 47/2/2 48/2/2 57/2/2
f 56/3/2 47/3/2 57/3/2
f 48/3/2 49/3/2 58/3/2
f 57/2/2 48/2/2 58/2/2
f 49/2/2 50/2/2 59/2/2
f 58/3/2 49/3/2 59/3/2
f 50/3/2 51/3/2 60/3/2
f 59/2/2 50/2/2 60/2/2
f 51/2/2 52/2/2 61/2/2
f 60/3/2 51/3/2 61/3/2
f 61/2/2 52/2/2 62/2/2
f 65/2/3 64/2/3 63/2/3
f 66/2/3 64/2/3 65/2/3
f 67/1/3 66/1/3 65/1/3
f 68/1/3 66/1/3 67/1/3
f 69/3/3 68/3/3 67/3/3
f 70/3/3 68/3/3 69/3/3
f 71/2/3 70/2/3 69/2/3
f 72/2/3 70/2/3 71/2/3
f 73/3/3 72/3/3 71/3/3
f 74/3/3 72/3/3 73/3/3
f 75/2/3 74/2/3 73/2/3
f 76/2/3 74/2/3 75/2/3
f 77/3/3 76/3/3 75/3/3
f 78/3/3 76/3/3 77/3/3
f 79/1/3 78/1/3 77/1/3
f 80/1/3 78/1/3 79/1/3
f 81/3/3 80/3/3 79/3/3
f 82/3/3 80/3/3 81/3/3
f 83/2/3 82/2/3 81/2/3
f 84/2/3 82/2/3 83/2/3
f 87/5/3 86/5/3 85/5/3
f 88/5/3 86/5/3 87/5/3
f 89/5/3 86/5/3 88/5/3
f 90/5/3 86/5/3 89/5/3
f 91/5/3 86/5/3 90/5/3
f 92/5/3 86/5/3 91/5/3
f 93/5/3 86/5/3 92/5/3
f 94/5/3 86/5/3 93/5/3
f 95/5/3 86/5/3 94/5/3
f 96/5/3 86/5/3 95/5/3
f 97/5/4 98/5/4 99/5/4
f 99/5/4 98/5/4 100/5/4
f 100/5/4 98/5/4 101/5/4
f 101/5/4 98/5/4 102/5/4
f 102/5/4 98/5/4 103/5/4
f 103/5/4 98/5/4 104/5/4
f 104/5/4 98/5/4 105/5/4
f 105/5/4 98/5/4 106/5/4
f 106/5/4 98/5/4 107/5/4
f 107/5/4 98/5/4 108/5/4
f 109/2/4 110/2/4 111/2/4
f 111/2/4 110/2/4 112/2/4
f 111/3/4 112/3/4 113/3/4
f 113/3/4 112/3/4 114/3/4
f 113/1/4 114/1/4 115/1/4
f 115/1/4 114/1/4 116/1/4
f 115/3/4 116/3/4 117/3/4
f 117/3/4 116/3/4 118/3/4
f 117/2/4 118/2/4 119/2/4
f 119/2/4 118/2/4 120/2/4
f 119/3/4 120/3/4 121/3/4
f 121/3/4 120/3/4 122/3/4
f 121/2/4 122/2/4 123/2/4
f 123/2/4 122/2/4 124/2/4
f 123/3/4 124/3/4 125/3/4
f 125/3/4 124/3/4 126/3/4
f 125/1/4 126/1/4 127/1/4
f 127/1/4 126/1/4 128/1/4
f 127/2/4 128/2/4 129/2/4
f 129/2/4 128/2/4 130/2/4
f 142/2/5 132/2/5 131/2/5
f 142/1/5 133/1/5 132/1/5
f 143/3/5 134/3/5 133/3/5
f 143/1/5 133/1/5 142/1/5
f 144/2/5 135/2/5 134/2/5
f 144/3/5 134/3/5 143/3/5
f 145/3/5 136/3/5 135/3/5
f 145/2/5 135/2/5 144/2/5
f 146/2/5 137/2/5 136/2/5
f 146/3/5 136/3/5 145/3/5
f 147/3/5 138/3/5 137/3/5
f 147/2/5 137/2/5 146/2/5
f 148/1/5 139/1/5 138/1/5
f 148/3/5 138/3/5 147/3/5
f 149/3/5 140/3/5 139/3/5
f 149/1/5 139/1/5 148/1/5
f 150/2/5 141/2/5 140/2/5
f 150/3/5 140/3/5 149/3/5
f 151/2/5 149/2/5 148/2/5
f 151/2/5 148/2/5 147/2/5
f 151/2/5 150/2/5 149/2/5
f 151/2/5 147/2/5 146/2/5
f 151/2/5 146/2/5 145/2/5
f 151/2/5 145/2/5 144/2/5
f 151/2/5 144/2/5 143/2/5
f 151/2/5 143/2/5 142/2/5
f 151/2/5 142/2/5 131/2/5
f 152/2/5 150/2/5 151/2/5
f 153/2/5 141/2/5 150/2/5
f 153/2/5 150/2/5 152/2/5
f 154/2/5 141/2/5 153/2/5
f 155/3/5 152/3/5 151/3/5
f 156/2/5 153/2/5 152/2/5
f 156/3/5 152/3/5 155/3/5
f 157/3/5 154/3/5 153/3/5
f 157/2/5 153/2/5 156/2/5
f 158/3/5 154/3/5 157/3/5
f 159/2/5 156/2/5 155/2/5
f 159/2/5 157/2/5 156/2/5
f 159/2/5 158/2/5 157/2/5
f 160/2/5 158/2/5 159/2/5
f 161/2/5 158/2/5 160/2/5
f 162/2/5 158/2/5 161/2/5
f 163/3/5 160/3/5 159/3/5
f 164/2/5 161/2/5 160/2/5
f 164/3/5 160/3/5 163/3/5
f 165/3/5 162/3/5 161/3/5
f 165/2/5 161/2/5 164/2/5
f 166/3/5 162/3/5 165/3/5
f 167/2/5 164/2/5 163/2/5
f 167/2/5 165/2/5 164/2/5
f 167/2/5 166/2/5 165/2/5
f 168/2/5 166/2/5 167/2/5
f 169/2/5 166/2/5 168/2/5
f 170/2/5 166/2/5 169/2/5
f 171/3/5 168/3/5 167/3/5
f 172/2/5 169/2/5 168/2/5
f 172/3/5 168/3/5 171/3/5
f 173/3/5 170/3/5 169/3/5
f 173/2/5 169/2/5 172/2/5
f 174/3/5 170/3/5 173/3/5
f 175/2/5 172/2/5 171/2/5
f 175/2/5 173/2/5 172/2/5
f 175/2/5 174/2/5 173/2/5
f 176/2/5 174/2/5 175/2/5
f 177/2/5 174/2/5 176/2/5
f 178/2/5 174/2/5 177/2/5
f 179/3/5 176/3/5 175/3/5
f 180/2/5 177/2/5 176/2/5
f 180/3/5 176/3/5 179/3/5
f 181/2/5 177/2/5 180/2/5
f 182/2/5 177/2/5 181/2/5
f 183/2/5 177/2/5 182/2/5
f 184/2/5 177/2/5 183/2/5
f 185/2/5 177/2/5 184/2/5
f 186/2/5 177/2/5 185/2/5
f 187/2/5 177/2/5 186/2/5
f 188/2/5 177/2/5 187/2/5
f 189/3/5 178/3/5 177/3/5
f 189/2/5 177/2/5 188/2/5
f 190/3/5 178/3/5 189/3/5
f 191/2/5 180/2/5 179/2/5
f 191/2/5 181/2/5 180/2/5
f 192/3/5 182/3/5 181/3/5
f 192/2/5 181/2/5 191/2/5
f 193/1/5 183/1/5 182/1/5
f 193/3/5 182/3/5 192/3/5
f 194/3/5 184/3/5 183/3/5
f 194/1/5 183/1/5 193/1/5
f 195/2/5 185/2/5 184/2/5
f 195/3/5 184/3/5 194/3/5
f 196/3/5 186/3/5 185/3/5
f 196/2/5 185/2/5 195/2/5
f 197/2/5 187/2/5 186/2/5
f 197/3/5 186/3/5 196/3/5
f 198/3/5 188/3/5 187/3/5
f 198/2/5 187/2/5 197/2/5
f 199/1/5 189/1/5 188/1/5
f 199/3/5 188/3/5 198/3/5
f 200/2/5 190/2/5 189/2/5
f 200/1/5 189/1/5 199/1/5
f 201/2/5 190/2/5 200/2/5
f 202/2/6 203/2/6 213/2/6
f 203/1/6 204/1/6 213/1/6
f 204/3/6 205/3/6 214/3/6
f 213/1/6 204/1/6 214/1/6
f 205/2/6 206/2/6 215/2/6
f 214/3/6 205/3/6 215/3/6
f 206/3/6 207/3/6 216/3/6
f 215/2/6 206/2/6 216/2/6
f 207/2/6 208/2/6 217/2/6
f 216/3/6 207/3/6 217/3/6
f 208/3/6 209/3/6 218/3/6
f 217/2/6 208/2/6 218/2/6
f 209/1/6 210/1/6 219/1/6
f 218/3/6 209/3/6 219/3/6
f 210/3/6 211/3/6 220/3/6
f 219/1/6 210/1/6 220/1/6
f 211/2/6 212/2/6 221/2/6
f 220/3/6 211/3/6 221/3/6
f 221/2/6 212/2/6 222/2/6
f 202/2/6 213/2/6 223/2/6
f 223/2/6 213/2/6 224/2/6
f 222/2/6 212/2/6 225/2/6
f 225/2/6 212/2/6 226/2/6
f 223/3/6 224/3/6 227/3/6
f 227/3/6 224/3/6 228/3/6
f 225/3/6 226/3/6 229/3/6
f 229/3/6 226/3/6 230/3/6
f 227/2/6 228/2/6 231/2/6
f 231/2/6 228/2/6 232/2/6
f 229/2/6 230/2/6 233/2/6
f 233/2/6 230/2/6 234/2/6
f 231/3/6 232/3/6 235/3/6
f 235/3/6 232/3/6 236/3/6
f 233/3/6 234/3/6 237/3/6
f 237/3/6 234/3/6 238/3/6
f 235/2/6 236/2/6 239/2/6
f 239/2/6 236/2/6 240/2/6
f 237/2/6 238/2/6 241/2/6
f 241/2/6 238/2/6 242/2/6
f 239/3/6 240/3/6 243/3/6
f 243/3/6 240/3/6 244/3/6
f 241/3/6 242/3/6 245/3/6
f 245/3/6 242/3/6 246/3/6
f 243/2/6 244/2/6 247/2/6
f 247/2/6 244/2/6 248/2/6
f 245/2/6 246/2/6 249/2/6
f 249/2/6 246/2/6 250/2/6
f 247/3/6 248/3/6 251/3/6
f 251/3/6 248/3/6 252/3/6
f 249/3/6 250/3/6 261/3/6
f 261/3/6 250/3/6 262/3/6
f 251/2/6 252/2/6 263/2/6
f 252/2/6 253/2/6 263/2/6
f 253/3/6 254/3/6 264/3/6
f 263/2/6 253/2/6 264/2/6
f 254/1/6 255/1/6 265/1/6
f 264/3/6 254/3/6 265/3/6
f 255/3/6 256/3/6 266/3/6
f 265/1/6 255/1/6 266/1/6
f 256/2/6 257/2/6 267/2/6
f 266/3/6 256/3/6 267/3/6
f 257/3/6 258/3/6 268/3/6
f 267/2/6 257/2/6 268/2/6
f 258/2/6 259/2/6 269/2/6
f 268/3/6 258/3/6 269/3/6
f 259/3/6 260/3/6 270/3/6
f 269/2/6 259/2/6 270/2/6
f 260/1/6 261/1/6 271/1/6
f 270/3/6 260/3/6 271/3/6
f 261/2/6 262/2/6 272/2/6
f 271/1/6 261/1/6 272/1/6
f 272/2/6 262/2/6 273/2/6
f 274/5/6 275/5/6 276/5/6
f 276/5/6 275/5/6 277/5/6
f 274/5/6 276/5/6 278/5/6
f 276/4/6 277/4/6 278/4/6
f 278/4/6 277/4/6 279/4/6
f 278/3/6 279/3/6 280/3/6
f 279/4/6 277/4/6 280/4/6
f 280/4/6 277/4/6 281/4/6
f 280/3/6 281/3/6 282/3/6
f 281/4/6 277/4/6 282/4/6
f 282/4/6 277/4/6 283/4/6
f 274/5/6 278/5/6 284/5/6
f 278/3/6 280/3/6 284/3/6
f 282/3/6 283/3/6 284/3/6
f 280/3/6 282/3/6 284/3/6
f 283/4/6 277/4/6 285/4/6
f 284/3/6 283/3/6 285/3/6
f 277/5/6 275/5/6 286/5/6
f 285/4/6 277/4/6 286/4/6
f 284/5/6 285/5/6 287/5/6
f 274/5/6 284/5/6 287/5/6
f 285/5/6 286/5/6 287/5/6
f 286/5/6 275/5/6 288/5/6
f 287/5/6 286/5/6 288/5/6
