# MagicaVoxel @ Ephtracy

# group
o 

# material
mtllib headandtorso.vox.mtl
usemtl palette

# normals
vn -1 0 0
vn 1 0 0
vn 0 0 1
vn 0 0 -1
vn 0 -1 0
vn 0 1 0

# texcoords
vt 0.0292969 0.5
vt 0.537109 0.5
vt 0.751953 0.5
vt 0.841797 0.5
vt 0.958984 0.5

# verts
v -0.1 0.7 0.1
v -0.1 0.7 -0.2
v -0.1 1 0.1
v -0.1 1 -0.2
v 1.49012e-08 0.4 0.1
v 1.49012e-08 0.4 -0.2
v 1.49012e-08 0.7 0.1
v 1.49012e-08 0.7 -0.2
v 0.2 0.4 0.1
v 0.2 0.4 -0.2
v 0.2 0.5 -1.49012e-08
v 0.2 0.5 -0.1
v 0.2 0.7 0.1
v 0.2 0.7 -1.49012e-08
v 0.2 0.7 -0.1
v 0.2 0.7 -0.2
v 0.3 0.7 0.1
v 0.3 0.7 -0.2
v 0.3 0.8 0.1
v 0.3 0.8 -1.49012e-08
v 0.3 0.8 -0.1
v 0.3 0.8 -0.2
v 0.3 0.9 0.1
v 0.3 0.9 -1.49012e-08
v 0.3 0.9 -0.1
v 0.3 0.9 -0.2
v 0.3 1 0.1
v 0.3 1 -0.2
v -0.1 0.7 0.1
v -0.1 1 0.1
v 1.49012e-08 0.4 0.1
v 1.49012e-08 0.7 0.1
v 1.49012e-08 0.8 0.1
v 0.1 0.8 0.1
v 0.1 0.9 0.1
v 0.2 0.4 0.1
v 0.2 0.7 0.1
v 0.2 0.8 0.1
v 0.2 0.9 0.1
v 0.3 0.7 0.1
v 0.3 0.8 0.1
v 0.3 0.9 0.1
v 0.3 1 0.1
v -0.1 0.7 -0.2
v -0.1 1 -0.2
v 1.49012e-08 0.4 -0.2
v 1.49012e-08 0.7 -0.2
v 1.49012e-08 0.8 -0.2
v 0.1 0.8 -0.2
v 0.1 0.9 -0.2
v 0.2 0.4 -0.2
v 0.2 0.7 -0.2
v 0.2 0.8 -0.2
v 0.2 0.9 -0.2
v 0.3 0.7 -0.2
v 0.3 0.8 -0.2
v 0.3 0.9 -0.2
v 0.3 1 -0.2
v 1.49012e-08 0.4 0.1
v 0.2 0.4 0.1
v 1.49012e-08 0.4 -0.2
v 0.2 0.4 -0.2
v -0.1 0.7 0.1
v 1.49012e-08 0.7 0.1
v 0.2 0.7 0.1
v 0.3 0.7 0.1
v 0.2 0.7 -1.49012e-08
v 0.2 0.7 -0.1
v -0.1 0.7 -0.2
v 1.49012e-08 0.7 -0.2
v 0.2 0.7 -0.2
v 0.3 0.7 -0.2
v -0.1 1 0.1
v 0.3 1 0.1
v -0.1 1 -0.2
v 0.3 1 -0.2

# faces
f 3/2/1 2/2/1 1/2/1
f 4/2/1 2/2/1 3/2/1
f 7/5/1 6/5/1 5/5/1
f 8/5/1 6/5/1 7/5/1
f 9/5/2 10/5/2 11/5/2
f 11/5/2 10/5/2 12/5/2
f 9/5/2 11/5/2 13/5/2
f 11/4/2 12/4/2 14/4/2
f 13/5/2 11/5/2 14/5/2
f 12/5/2 10/5/2 15/5/2
f 14/4/2 12/4/2 15/4/2
f 15/5/2 10/5/2 16/5/2
f 17/1/2 18/1/2 19/1/2
f 19/1/2 18/1/2 20/1/2
f 20/1/2 18/1/2 21/1/2
f 21/1/2 18/1/2 22/1/2
f 19/3/2 20/3/2 23/3/2
f 20/1/2 21/1/2 24/1/2
f 23/3/2 20/3/2 24/3/2
f 21/3/2 22/3/2 25/3/2
f 24/1/2 21/1/2 25/1/2
f 25/3/2 22/3/2 26/3/2
f 23/2/2 24/2/2 27/2/2
f 24/2/2 25/2/2 27/2/2
f 25/2/2 26/2/2 27/2/2
f 27/2/2 26/2/2 28/2/2
f 32/2/3 30/2/3 29/2/3
f 33/2/3 30/2/3 32/2/3
f 34/1/3 33/1/3 32/1/3
f 34/2/3 30/2/3 33/2/3
f 35/2/3 30/2/3 34/2/3
f 36/5/3 32/5/3 31/5/3
f 37/1/3 34/1/3 32/1/3
f 37/5/3 32/5/3 36/5/3
f 37/1/3 35/1/3 34/1/3
f 38/1/3 35/1/3 37/1/3
f 39/2/3 30/2/3 35/2/3
f 39/1/3 35/1/3 38/1/3
f 40/1/3 38/1/3 37/1/3
f 41/3/3 39/3/3 38/3/3
f 41/1/3 38/1/3 40/1/3
f 42/2/3 30/2/3 39/2/3
f 42/3/3 39/3/3 41/3/3
f 43/2/3 30/2/3 42/2/3
f 44/2/4 45/2/4 47/2/4
f 47/2/4 45/2/4 48/2/4
f 47/1/4 48/1/4 49/1/4
f 48/2/4 45/2/4 49/2/4
f 49/2/4 45/2/4 50/2/4
f 46/5/4 47/5/4 51/5/4
f 47/1/4 49/1/4 52/1/4
f 51/5/4 47/5/4 52/5/4
f 49/1/4 50/1/4 52/1/4
f 52/1/4 50/1/4 53/1/4
f 50/2/4 45/2/4 54/2/4
f 53/1/4 50/1/4 54/1/4
f 52/1/4 53/1/4 55/1/4
f 53/3/4 54/3/4 56/3/4
f 55/1/4 53/1/4 56/1/4
f 54/2/4 45/2/4 57/2/4
f 56/3/4 54/3/4 57/3/4
f 57/2/4 45/2/4 58/2/4
f 61/5/5 60/5/5 59/5/5
f 62/5/5 60/5/5 61/5/5
f 67/1/5 66/1/5 65/1/5
f 68/1/5 66/1/5 67/1/5
f 69/2/5 64/2/5 63/2/5
f 70/2/5 64/2/5 69/2/5
f 71/1/5 66/1/5 68/1/5
f 72/1/5 66/1/5 71/1/5
f 73/2/6 74/2/6 75/2/6
f 75/2/6 74/2/6 76/2/6
