# MagicaVoxel @ Ephtracy

# group
o 

# material
mtllib MC.vox.mtl
usemtl palette

# normals
vn -1 0 0
vn 1 0 0
vn 0 0 1
vn 0 0 -1
vn 0 -1 0
vn 0 1 0

# texcoords
vt 0.0292969 0.5
vt 0.537109 0.5
vt 0.751953 0.5
vt 0.841797 0.5
vt 0.955078 0.5
vt 0.958984 0.5
vt 0.994141 0.5

# verts
v -0.1 0.7 0.1
v -0.1 0.7 -0.2
v -0.1 1 0.1
v -0.1 1 -0.2
v 1.49012e-08 0 0.1
v 1.49012e-08 0 0
v 1.49012e-08 0 -0.1
v 1.49012e-08 0 -0.2
v 1.49012e-08 0.1 0.1
v 1.49012e-08 0.1 0
v 1.49012e-08 0.1 -0.1
v 1.49012e-08 0.1 -0.2
v 1.49012e-08 0.3 0
v 1.49012e-08 0.3 -0.1
v 1.49012e-08 0.4 0.2
v 1.49012e-08 0.4 0.1
v 1.49012e-08 0.4 -0.2
v 1.49012e-08 0.4 -0.3
v 1.49012e-08 0.5 0.2
v 1.49012e-08 0.5 0.1
v 1.49012e-08 0.5 -0.2
v 1.49012e-08 0.5 -0.3
v 1.49012e-08 0.7 0.2
v 1.49012e-08 0.7 0.1
v 1.49012e-08 0.7 -0.2
v 1.49012e-08 0.7 -0.3
v 0.2 0 0.1
v 0.2 0 0
v 0.2 0 -0.1
v 0.2 0 -0.2
v 0.2 0.1 0.1
v 0.2 0.1 0
v 0.2 0.1 -0.1
v 0.2 0.1 -0.2
v 0.2 0.3 0
v 0.2 0.3 -0.1
v 0.2 0.4 0.2
v 0.2 0.4 0.1
v 0.2 0.4 -0.2
v 0.2 0.4 -0.3
v 0.2 0.5 0.2
v 0.2 0.5 0.1
v 0.2 0.5 0
v 0.2 0.5 -0.1
v 0.2 0.5 -0.2
v 0.2 0.5 -0.3
v 0.2 0.7 0.2
v 0.2 0.7 0.1
v 0.2 0.7 0
v 0.2 0.7 -0.1
v 0.2 0.7 -0.2
v 0.2 0.7 -0.3
v 0.3 0.7 0.1
v 0.3 0.7 -0.2
v 0.3 0.8 0.1
v 0.3 0.8 0
v 0.3 0.8 -0.1
v 0.3 0.8 -0.2
v 0.3 0.9 0.1
v 0.3 0.9 0
v 0.3 0.9 -0.1
v 0.3 0.9 -0.2
v 0.3 1 0.1
v 0.3 1 -0.2
v 1.49012e-08 0.4 0.2
v 1.49012e-08 0.5 0.2
v 1.49012e-08 0.7 0.2
v 0.2 0.4 0.2
v 0.2 0.5 0.2
v 0.2 0.7 0.2
v -0.1 0.7 0.1
v -0.1 1 0.1
v 1.49012e-08 0 0.1
v 1.49012e-08 0.1 0.1
v 1.49012e-08 0.4 0.1
v 1.49012e-08 0.7 0.1
v 1.49012e-08 0.8 0.1
v 0.1 0 0.1
v 0.1 0.1 0.1
v 0.1 0.8 0.1
v 0.1 0.9 0.1
v 0.2 0 0.1
v 0.2 0.1 0.1
v 0.2 0.4 0.1
v 0.2 0.7 0.1
v 0.2 0.8 0.1
v 0.2 0.9 0.1
v 0.3 0.7 0.1
v 0.3 0.8 0.1
v 0.3 0.9 0.1
v 0.3 1 0.1
v 1.49012e-08 0 -0.1
v 1.49012e-08 0.1 -0.1
v 1.49012e-08 0.3 -0.1
v 0.1 0 -0.1
v 0.1 0.1 -0.1
v 0.2 0 -0.1
v 0.2 0.1 -0.1
v 0.2 0.3 -0.1
v 1.49012e-08 0 0
v 1.49012e-08 0.1 0
v 1.49012e-08 0.3 0
v 0.1 0 0
v 0.1 0.1 0
v 0.2 0 0
v 0.2 0.1 0
v 0.2 0.3 0
v -0.1 0.7 -0.2
v -0.1 1 -0.2
v 1.49012e-08 0 -0.2
v 1.49012e-08 0.1 -0.2
v 1.49012e-08 0.4 -0.2
v 1.49012e-08 0.7 -0.2
v 1.49012e-08 0.8 -0.2
v 0.1 0 -0.2
v 0.1 0.1 -0.2
v 0.1 0.8 -0.2
v 0.1 0.9 -0.2
v 0.2 0 -0.2
v 0.2 0.1 -0.2
v 0.2 0.4 -0.2
v 0.2 0.7 -0.2
v 0.2 0.8 -0.2
v 0.2 0.9 -0.2
v 0.3 0.7 -0.2
v 0.3 0.8 -0.2
v 0.3 0.9 -0.2
v 0.3 1 -0.2
v 1.49012e-08 0.4 -0.3
v 1.49012e-08 0.5 -0.3
v 1.49012e-08 0.7 -0.3
v 0.2 0.4 -0.3
v 0.2 0.5 -0.3
v 0.2 0.7 -0.3
v 1.49012e-08 0 0.1
v 0.1 0 0.1
v 0.2 0 0.1
v 1.49012e-08 0 0
v 0.1 0 0
v 0.2 0 0
v 1.49012e-08 0 -0.1
v 0.1 0 -0.1
v 0.2 0 -0.1
v 1.49012e-08 0 -0.2
v 0.1 0 -0.2
v 0.2 0 -0.2
v 1.49012e-08 0.3 0
v 0.2 0.3 0
v 1.49012e-08 0.3 -0.1
v 0.2 0.3 -0.1
v 1.49012e-08 0.4 0.2
v 0.2 0.4 0.2
v 1.49012e-08 0.4 0.1
v 0.2 0.4 0.1
v 1.49012e-08 0.4 -0.2
v 0.2 0.4 -0.2
v 1.49012e-08 0.4 -0.3
v 0.2 0.4 -0.3
v -0.1 0.7 0.1
v 1.49012e-08 0.7 0.1
v 0.2 0.7 0.1
v 0.3 0.7 0.1
v 0.2 0.7 0
v 0.2 0.7 -0.1
v -0.1 0.7 -0.2
v 1.49012e-08 0.7 -0.2
v 0.2 0.7 -0.2
v 0.3 0.7 -0.2
v 1.49012e-08 0.7 0.2
v 0.2 0.7 0.2
v 1.49012e-08 0.7 0.1
v 0.2 0.7 0.1
v 1.49012e-08 0.7 -0.2
v 0.2 0.7 -0.2
v 1.49012e-08 0.7 -0.3
v 0.2 0.7 -0.3
v -0.1 1 0.1
v 0.3 1 0.1
v -0.1 1 -0.2
v 0.3 1 -0.2

# faces
f 3/2/1 2/2/1 1/2/1
f 4/2/1 2/2/1 3/2/1
f 9/5/1 6/5/1 5/5/1
f 10/5/1 6/5/1 9/5/1
f 11/5/1 8/5/1 7/5/1
f 12/5/1 8/5/1 11/5/1
f 13/2/1 10/2/1 9/2/1
f 14/2/1 12/2/1 11/2/1
f 16/2/1 13/2/1 9/2/1
f 16/2/1 14/2/1 13/2/1
f 17/2/1 12/2/1 14/2/1
f 17/2/1 14/2/1 16/2/1
f 19/1/1 16/1/1 15/1/1
f 20/6/1 17/6/1 16/6/1
f 20/1/1 16/1/1 19/1/1
f 21/1/1 18/1/1 17/1/1
f 21/6/1 17/6/1 20/6/1
f 22/1/1 18/1/1 21/1/1
f 23/6/1 20/6/1 19/6/1
f 23/6/1 21/6/1 20/6/1
f 23/6/1 22/6/1 21/6/1
f 24/6/1 22/6/1 23/6/1
f 25/6/1 22/6/1 24/6/1
f 26/6/1 22/6/1 25/6/1
f 27/7/2 28/7/2 31/7/2
f 31/7/2 28/7/2 32/7/2
f 29/7/2 30/7/2 33/7/2
f 33/7/2 30/7/2 34/7/2
f 31/2/2 32/2/2 35/2/2
f 33/2/2 34/2/2 36/2/2
f 31/2/2 35/2/2 38/2/2
f 35/2/2 36/2/2 38/2/2
f 36/2/2 34/2/2 39/2/2
f 38/2/2 36/2/2 39/2/2
f 37/1/2 38/1/2 41/1/2
f 38/6/2 39/6/2 42/6/2
f 41/1/2 38/1/2 42/1/2
f 42/6/2 39/6/2 43/6/2
f 43/6/2 39/6/2 44/6/2
f 39/1/2 40/1/2 45/1/2
f 44/6/2 39/6/2 45/6/2
f 45/1/2 40/1/2 46/1/2
f 41/6/2 42/6/2 47/6/2
f 42/6/2 43/6/2 47/6/2
f 47/6/2 43/6/2 48/6/2
f 43/4/2 44/4/2 49/4/2
f 48/6/2 43/6/2 49/6/2
f 45/6/2 46/6/2 50/6/2
f 49/4/2 44/4/2 50/4/2
f 44/6/2 45/6/2 50/6/2
f 50/6/2 46/6/2 51/6/2
f 51/6/2 46/6/2 52/6/2
f 53/1/2 54/1/2 55/1/2
f 55/1/2 54/1/2 56/1/2
f 56/1/2 54/1/2 57/1/2
f 57/1/2 54/1/2 58/1/2
f 55/3/2 56/3/2 59/3/2
f 56/1/2 57/1/2 60/1/2
f 59/3/2 56/3/2 60/3/2
f 57/3/2 58/3/2 61/3/2
f 60/1/2 57/1/2 61/1/2
f 61/3/2 58/3/2 62/3/2
f 59/2/2 60/2/2 63/2/2
f 60/2/2 61/2/2 63/2/2
f 61/2/2 62/2/2 63/2/2
f 63/2/2 62/2/2 64/2/2
f 68/1/3 66/1/3 65/1/3
f 69/6/3 67/6/3 66/6/3
f 69/1/3 66/1/3 68/1/3
f 70/6/3 67/6/3 69/6/3
f 76/2/3 72/2/3 71/2/3
f 77/2/3 72/2/3 76/2/3
f 78/5/3 74/5/3 73/5/3
f 79/2/3 75/2/3 74/2/3
f 79/5/3 74/5/3 78/5/3
f 80/2/3 72/2/3 77/2/3
f 80/1/3 77/1/3 76/1/3
f 81/2/3 72/2/3 80/2/3
f 82/7/3 79/7/3 78/7/3
f 83/2/3 75/2/3 79/2/3
f 83/7/3 79/7/3 82/7/3
f 84/2/3 75/2/3 83/2/3
f 85/1/3 80/1/3 76/1/3
f 85/1/3 81/1/3 80/1/3
f 86/1/3 81/1/3 85/1/3
f 87/2/3 72/2/3 81/2/3
f 87/1/3 81/1/3 86/1/3
f 88/1/3 86/1/3 85/1/3
f 89/3/3 87/3/3 86/3/3
f 89/1/3 86/1/3 88/1/3
f 90/2/3 72/2/3 87/2/3
f 90/3/3 87/3/3 89/3/3
f 91/2/3 72/2/3 90/2/3
f 95/5/3 93/5/3 92/5/3
f 96/2/3 94/2/3 93/2/3
f 96/5/3 93/5/3 95/5/3
f 97/7/3 96/7/3 95/7/3
f 98/2/3 94/2/3 96/2/3
f 98/7/3 96/7/3 97/7/3
f 99/2/3 94/2/3 98/2/3
f 100/5/4 101/5/4 103/5/4
f 101/2/4 102/2/4 104/2/4
f 103/5/4 101/5/4 104/5/4
f 103/7/4 104/7/4 105/7/4
f 104/2/4 102/2/4 106/2/4
f 105/7/4 104/7/4 106/7/4
f 106/2/4 102/2/4 107/2/4
f 108/2/4 109/2/4 113/2/4
f 113/2/4 109/2/4 114/2/4
f 110/5/4 111/5/4 115/5/4
f 111/2/4 112/2/4 116/2/4
f 115/5/4 111/5/4 116/5/4
f 114/2/4 109/2/4 117/2/4
f 113/1/4 114/1/4 117/1/4
f 117/2/4 109/2/4 118/2/4
f 115/7/4 116/7/4 119/7/4
f 116/2/4 112/2/4 120/2/4
f 119/7/4 116/7/4 120/7/4
f 120/2/4 112/2/4 121/2/4
f 113/1/4 117/1/4 122/1/4
f 117/1/4 118/1/4 122/1/4
f 122/1/4 118/1/4 123/1/4
f 118/2/4 109/2/4 124/2/4
f 123/1/4 118/1/4 124/1/4
f 122/1/4 123/1/4 125/1/4
f 123/3/4 124/3/4 126/3/4
f 125/1/4 123/1/4 126/1/4
f 124/2/4 109/2/4 127/2/4
f 126/3/4 124/3/4 127/3/4
f 127/2/4 109/2/4 128/2/4
f 129/1/4 130/1/4 132/1/4
f 130/6/4 131/6/4 133/6/4
f 132/1/4 130/1/4 133/1/4
f 133/6/4 131/6/4 134/6/4
f 138/5/5 136/5/5 135/5/5
f 139/7/5 137/7/5 136/7/5
f 139/5/5 136/5/5 138/5/5
f 140/7/5 137/7/5 139/7/5
f 144/5/5 142/5/5 141/5/5
f 145/7/5 143/7/5 142/7/5
f 145/5/5 142/5/5 144/5/5
f 146/7/5 143/7/5 145/7/5
f 149/2/5 148/2/5 147/2/5
f 150/2/5 148/2/5 149/2/5
f 153/1/5 152/1/5 151/1/5
f 154/1/5 152/1/5 153/1/5
f 157/1/5 156/1/5 155/1/5
f 158/1/5 156/1/5 157/1/5
f 163/1/5 162/1/5 161/1/5
f 164/1/5 162/1/5 163/1/5
f 165/2/5 160/2/5 159/2/5
f 166/2/5 160/2/5 165/2/5
f 167/1/5 162/1/5 164/1/5
f 168/1/5 162/1/5 167/1/5
f 169/6/6 170/6/6 171/6/6
f 171/6/6 170/6/6 172/6/6
f 173/6/6 174/6/6 175/6/6
f 175/6/6 174/6/6 176/6/6
f 177/2/6 178/2/6 179/2/6
f 179/2/6 178/2/6 180/2/6
